<?xml version="1.0" encoding="UTF-8"?>
<svg version="1.1" xmlns="http://www.w3.org/2000/svg" width="2000" height="2000">
<path d="M0 0 C4.62800355 0.59240442 7.9853569 1.19507704 11.984375 3.6328125 C12.90541016 4.18388672 13.82644531 4.73496094 14.77539062 5.30273438 C15.75701172 5.90408203 16.73863281 6.50542969 17.75 7.125 C19.89946477 8.4114925 22.05056908 9.6952488 24.203125 10.9765625 C25.31880859 11.64204102 26.43449219 12.30751953 27.58398438 12.99316406 C33.16277525 16.27058409 38.83064302 19.382752 44.5 22.5 C54.06378728 27.77492853 63.52796245 33.1924135 72.94140625 38.73046875 C80.39864185 43.10262928 87.93143648 47.3239439 95.5 51.5 C105.06295082 56.77648595 114.5279205 62.19238882 123.94140625 67.73046875 C131.39864185 72.10262928 138.93143648 76.3239439 146.5 80.5 C156.06295082 85.77648595 165.5279205 91.19238882 174.94140625 96.73046875 C182.39864185 101.10262928 189.93143648 105.3239439 197.5 109.5 C207.06295082 114.77648595 216.5279205 120.19238882 225.94140625 125.73046875 C233.39864185 130.10262928 240.93143648 134.3239439 248.5 138.5 C258.06295082 143.77648595 267.5279205 149.19238882 276.94140625 154.73046875 C284.39864185 159.10262928 291.93143648 163.3239439 299.5 167.5 C309.06295082 172.77648595 318.5279205 178.19238882 327.94140625 183.73046875 C335.39864185 188.10262928 342.93143648 192.3239439 350.5 196.5 C360.06295082 201.77648595 369.5279205 207.19238882 378.94140625 212.73046875 C386.39864185 217.10262928 393.93143648 221.3239439 401.5 225.5 C411.06295082 230.77648595 420.5279205 236.19238882 429.94140625 241.73046875 C437.39864185 246.10262928 444.93143648 250.3239439 452.5 254.5 C462.06295082 259.77648595 471.5279205 265.19238882 480.94140625 270.73046875 C488.39864185 275.10262928 495.93143648 279.3239439 503.5 283.5 C513.06295082 288.77648595 522.5279205 294.19238882 531.94140625 299.73046875 C539.39864185 304.10262928 546.93143648 308.3239439 554.5 312.5 C564.06295082 317.77648595 573.5279205 323.19238882 582.94140625 328.73046875 C590.39864185 333.10262928 597.93143648 337.3239439 605.5 341.5 C615.06295082 346.77648595 624.5279205 352.19238882 633.94140625 357.73046875 C641.39864185 362.10262928 648.93143648 366.3239439 656.5 370.5 C666.06295082 375.77648595 675.5279205 381.19238882 684.94140625 386.73046875 C692.39864185 391.10262928 699.93143648 395.3239439 707.5 399.5 C717.06295082 404.77648595 726.5279205 410.19238882 735.94140625 415.73046875 C743.39864409 420.10263059 750.93147422 424.32387159 758.5 428.5 C769.20394059 434.40723674 779.79447001 440.48502831 790.33203125 446.68359375 C791.19963101 447.17834702 792.06723078 447.67310028 792.96112144 448.18284607 C796 450 796 450 798.85478985 452.03871155 C809.5020097 459.16601262 819.12845024 459.12548676 831.65255737 459 C833.83429968 459.00762935 836.01603203 459.01876684 838.19774067 459.03308773 C844.16370172 459.0621848 850.12860671 459.04180935 856.0945313 459.01306796 C862.53884326 458.99078901 868.98300579 459.01479699 875.42730713 459.03309631 C886.58272681 459.05985369 897.73785725 459.05501431 908.89327621 459.03103638 C920.58757614 459.00602201 932.28169569 458.99761976 943.976017 459.01119995 C945.06840108 459.0124546 945.06840108 459.0124546 946.18285352 459.01373459 C949.88159203 459.01806859 953.58033012 459.02269742 957.27906813 459.02743971 C983.44861834 459.06046302 1009.61804482 459.05654773 1035.78759766 459.03076172 C1061.2042898 459.00580244 1086.62089612 458.99780159 1112.03759766 459.01220703 C1113.63704677 459.01308988 1115.23649589 459.01397222 1116.83594501 459.01485407 C1129.83301872 459.02211035 1142.83009167 459.03053378 1155.82716449 459.03924005 C1215.88486038 459.07862982 1275.94221193 459.03276252 1336 459 C1336 546.45 1336 633.9 1336 724 C1298.42640625 723.8865625 1260.8528125 723.773125 1222.140625 723.65625 C1199.7637864 723.62226248 1177.38705257 723.58937815 1155.01020837 723.57667184 C1141.88045308 723.56913404 1128.7506986 723.56084965 1115.62094538 723.55026178 C1114.03301985 723.54898326 1112.44509431 723.54772826 1110.85716875 723.54649706 C1085.59242716 723.52671339 1060.32816048 723.45527843 1035.06361427 723.35652582 C1009.07339423 723.25521301 983.08359142 723.2068633 957.09316702 723.22409626 C953.412817 723.22651209 949.73246691 723.22832949 946.05211639 723.2297821 C945.32785024 723.23008649 944.60358408 723.23039087 943.85737046 723.23070448 C932.25076566 723.23404916 920.64504129 723.18241832 909.03869151 723.1096448 C897.33841985 723.03747682 885.63931459 723.02589485 873.93889818 723.07014775 C867.61149739 723.09235669 861.28691198 723.08948737 854.95984459 723.01533699 C828.5957395 722.72409718 807.4332555 722.50684845 785.82524252 738.95625401 C780.91881744 742.50550209 775.57659715 745.26518439 770.25 748.125 C762.10760572 752.65129006 754.03435262 757.28486882 746 762 C736.94173384 767.31603667 727.81592427 772.4952503 718.64111328 777.60717773 C710.68969694 782.04155033 702.77496719 786.5374044 694.875 791.0625 C686.43012834 795.89904547 677.97692716 800.71978351 669.5 805.5 C661.08920076 810.24474221 652.69568894 815.01918017 644.3125 819.8125 C643.7271347 820.14715271 643.14176941 820.48180542 642.53866577 820.82659912 C636.57436841 824.23667004 630.61154488 827.64930669 624.65040588 831.06489563 C621.70489112 832.75239031 618.75882747 834.43892475 615.8125 836.125 C615.23194855 836.45728607 614.65139709 836.78957214 614.05325317 837.13192749 C605.81306722 841.84615506 597.54252977 846.50347668 589.25 851.125 C581.15278675 855.63775171 573.11720806 860.24138697 565.125 864.9375 C555.52281393 870.57961427 545.81779673 876.01402469 536.06689453 881.39428711 C528.65084148 885.49727022 521.30484825 889.70245979 514 894 C504.44053137 899.62396361 494.77705316 905.03655201 485.06640625 910.39453125 C477.65053683 914.49746932 470.30469133 918.70255211 463 923 C454.56777394 927.96079169 446.06579665 932.77364413 437.5 937.5 C428.89397014 942.2490629 420.34975791 947.08284722 411.875 952.0625 C402.85557669 957.36219078 393.76740851 962.52142823 384.62963867 967.61401367 C376.78872856 971.98772681 368.97968285 976.41522019 361.1875 980.875 C360.60604218 981.20769897 360.02458435 981.54039795 359.42550659 981.88317871 C355.2827758 984.25389051 351.14123961 986.62668456 347 989 C342.27165982 991.70977867 337.54270072 994.4184702 332.8125 997.125 C332.23176727 997.45737671 331.65103455 997.78975342 331.05270386 998.13220215 C322.81270382 1002.84634403 314.54235173 1007.50357591 306.25 1012.125 C298.15278675 1016.63775171 290.11720806 1021.24138697 282.125 1025.9375 C272.52281393 1031.57961427 262.81779673 1037.01402469 253.06689453 1042.39428711 C245.65084148 1046.49727022 238.30484825 1050.70245979 231 1055 C221.44053137 1060.62396361 211.77705316 1066.03655201 202.06640625 1071.39453125 C194.65053683 1075.49746932 187.30469133 1079.70255211 180 1084 C170.44053137 1089.62396361 160.77705316 1095.03655201 151.06640625 1100.39453125 C143.65053683 1104.49746932 136.30469133 1108.70255211 129 1113 C120.56777394 1117.96079169 112.06579665 1122.77364413 103.5 1127.5 C94.89397014 1132.2490629 86.34975791 1137.08284722 77.875 1142.0625 C68.86717833 1147.35537381 59.79104557 1152.50861218 50.66479492 1157.59423828 C42.47787598 1162.16062181 34.32541816 1166.7845712 26.1875 1171.4375 C25.04958008 1172.0876709 23.91166016 1172.7378418 22.73925781 1173.40771484 C16.12717052 1177.19159985 16.12717052 1177.19159985 9.54541016 1181.02783203 C8.45405762 1181.66962402 7.36270508 1182.31141602 6.23828125 1182.97265625 C5.25512939 1183.554104 4.27197754 1184.13555176 3.2590332 1184.73461914 C1 1186 1 1186 0 1186 C-0.61884485 1149.96612927 -1.09417473 1113.93319439 -1.3787639 1077.89509824 C-1.41253046 1073.63464666 -1.4474774 1069.37420552 -1.4831543 1065.11376953 C-1.49023668 1064.26564129 -1.49731906 1063.41751305 -1.50461606 1062.54368395 C-1.62191034 1048.83412465 -1.83467024 1035.12764146 -2.08312549 1021.41990346 C-2.3361846 1007.34006405 -2.48570015 993.26182804 -2.54038936 979.17980814 C-2.57733413 970.49756908 -2.69365495 961.82402212 -2.91374461 953.14446282 C-3.05719413 947.18123577 -3.09945831 941.22245599 -3.06453719 935.25763154 C-3.04732365 931.81890953 -3.07235661 928.39526499 -3.21854782 924.95928001 C-3.82769253 908.16376788 -3.82769253 908.16376788 0 901 C6.74633265 894.2688367 15.27114363 890.26776948 23.88573205 886.41355419 C27.70516294 884.67992926 31.22270356 882.66364999 34.8125 880.5 C36.87397875 879.33152976 38.9364466 878.16480243 41 877 C50.22481051 871.76134704 59.38685194 866.43167765 68.5 861 C77.6775781 855.53105465 86.90249783 850.15850653 96.1875 844.875 C107.8617401 838.23153897 119.48162951 831.49998753 131.07324219 824.71337891 C145.44956314 816.29721103 159.84970055 807.9239385 174.28417969 799.60791016 C185.5479725 793.11500122 196.77552764 786.56057444 208 780 C221.40617881 772.16424334 234.82920683 764.35962289 248.28417969 756.60791016 C259.5479725 750.11500122 270.77552764 743.56057444 282 737 C295.40617881 729.16424334 308.82920683 721.35962289 322.28417969 713.60791016 C333.5479725 707.11500122 344.77552764 700.56057444 356 694 C369.40617881 686.16424334 382.82920683 678.35962289 396.28417969 670.60791016 C407.5479725 664.11500122 418.77552764 657.56057444 430 651 C443.40248946 643.16639972 456.82145455 635.3632734 470.27319336 627.61450195 C477.6743939 623.34860529 485.06071531 619.05796637 492.4375 614.75 C493.4167041 614.17878418 494.3959082 613.60756836 495.40478516 613.01904297 C500.15791628 610.24591817 504.90771391 607.46733352 509.65234375 604.6796875 C511.39315969 603.66133956 513.13404158 602.64310434 514.875 601.625 C516.07080688 600.91875488 516.07080688 600.91875488 517.29077148 600.19824219 C522.77338552 597 522.77338552 597 525 597 C525 589.41 525 581.82 525 574 C523.35 573.34 521.7 572.68 520 572 C518.18185942 571.05655275 516.37940073 570.08253856 514.58984375 569.0859375 C513.5318457 568.49796387 512.47384766 567.90999023 511.38378906 567.30419922 C510.24651367 566.66756348 509.10923828 566.03092773 507.9375 565.375 C506.73539518 564.70451164 505.5332459 564.03410297 504.33105469 563.36376953 C493.99569828 557.59178472 483.71637631 551.7225105 473.44639587 545.8352356 C466.81149587 542.0319007 460.16180402 538.25598077 453.5 534.5 C445.08916055 529.75532952 436.69568856 524.98081961 428.3125 520.1875 C427.7271347 519.85284729 427.14176941 519.51819458 426.53866577 519.17340088 C420.57436841 515.76332996 414.61154488 512.35069331 408.65040588 508.93510437 C405.70489112 507.24760969 402.75882747 505.56107525 399.8125 503.875 C399.23194855 503.54271393 398.65139709 503.21042786 398.05325317 502.86807251 C389.81306722 498.15384494 381.54252977 493.49652332 373.25 488.875 C364.15066703 483.80374535 355.14033368 478.59702847 346.15917969 473.31982422 C337.53888053 468.2732813 328.81232984 463.43118811 320.06689453 458.60571289 C311.65485078 453.95169098 303.34426025 449.14409999 295.05859375 444.26953125 C287.60135815 439.89737072 280.06856352 435.6760561 272.5 431.5 C262.93704918 426.22351405 253.4720795 420.80761118 244.05859375 415.26953125 C236.60135815 410.89737072 229.06856352 406.6760561 221.5 402.5 C211.93704918 397.22351405 202.4720795 391.80761118 193.05859375 386.26953125 C185.60135815 381.89737072 178.06856352 377.6760561 170.5 373.5 C160.93704918 368.22351405 151.4720795 362.80761118 142.05859375 357.26953125 C134.60135815 352.89737072 127.06856352 348.6760561 119.5 344.5 C109.93704918 339.22351405 100.4720795 333.80761118 91.05859375 328.26953125 C83.60135815 323.89737072 76.06856352 319.6760561 68.5 315.5 C58.95173742 310.23161849 49.49923178 304.82736189 40.10253906 299.29370117 C31.06849072 293.99323446 21.91706008 288.9147797 12.73046875 283.88476562 C11.64894531 283.28986328 10.56742188 282.69496094 9.453125 282.08203125 C8.49567383 281.55843018 7.53822266 281.0348291 6.55175781 280.49536133 C2.03755959 277.84998589 2.03755959 277.84998589 0 276 C-0.49679399 273.85768443 -0.49679399 273.85768443 -0.49219131 271.32046223 C-0.50413761 269.86937674 -0.50413761 269.86937674 -0.51632524 268.3889764 C-0.50467387 267.32381319 -0.4930225 266.25864998 -0.48101807 265.16120911 C-0.48443577 264.03158538 -0.48785347 262.90196165 -0.49137473 261.73810691 C-0.49799093 257.9329795 -0.47591487 254.12854931 -0.45410156 250.32348633 C-0.45074958 247.603862 -0.45342901 244.88425155 -0.45587158 242.16462708 C-0.457971 236.29925562 -0.44540018 230.43406188 -0.42292023 224.56873512 C-0.39043906 216.0884441 -0.37999721 207.60823918 -0.37496826 199.1278927 C-0.36620949 185.36979964 -0.33957817 171.61180135 -0.30175781 157.85375977 C-0.26505275 144.48755366 -0.23673364 131.12137327 -0.21972656 117.75512695 C-0.21867567 116.93150434 -0.21762477 116.10788174 -0.21654204 115.25930087 C-0.21132196 111.12750926 -0.20626711 106.99571748 -0.20129442 102.86392558 C-0.15981427 68.57588218 -0.08935005 34.2879513 0 0 Z " fill="#000000" transform="translate(0,0)"/>
<path d="M0 0 C0.29758241 36.04349399 0.52663799 72.08677252 0.66384928 108.13124213 C0.68010839 112.38697593 0.69693459 116.64270731 0.71411133 120.8984375 C0.71752136 121.74567361 0.7209314 122.59290972 0.72444477 123.46581966 C0.78100628 137.18276056 0.88350104 150.8989929 1.00298635 164.6155135 C1.12457512 178.69094237 1.19676755 192.76600029 1.22315043 206.84193277 C1.24098556 215.52741939 1.29729751 224.21090342 1.40291407 232.89577347 C1.47165758 238.85214107 1.49239728 244.80747424 1.47551791 250.76420969 C1.46719206 254.20142593 1.47989895 257.63514589 1.54967117 261.0717392 C1.89848663 281.18989765 1.89848663 281.18989765 -1.24818063 285.84753227 C-4.6708892 289.11178653 -8.54806276 290.48898761 -13 292 C-15.06121362 293.1490056 -17.10317204 294.33407773 -19.11328125 295.5703125 C-21.17868212 296.75695996 -23.24511881 297.94180605 -25.3125 299.125 C-27.60054836 300.43960695 -29.88835514 301.75462414 -32.17578125 303.0703125 C-33.31740723 303.72676758 -34.4590332 304.38322266 -35.63525391 305.05957031 C-40.76845788 308.01985947 -45.88474471 311.0088365 -51 314 C-59.31738902 318.86124858 -67.65205807 323.69141192 -76 328.5 C-88.36022518 335.62086408 -100.68467327 342.80183378 -113 350 C-126.40617881 357.83575666 -139.82920683 365.64037711 -153.28417969 373.39208984 C-164.5479725 379.88499878 -175.77552764 386.43942556 -187 393 C-200.40617881 400.83575666 -213.82920683 408.64037711 -227.28417969 416.39208984 C-238.5479725 422.88499878 -249.77552764 429.43942556 -261 436 C-274.40617881 443.83575666 -287.82920683 451.64037711 -301.28417969 459.39208984 C-312.5479725 465.88499878 -323.77552764 472.43942556 -335 479 C-348.40617881 486.83575666 -361.82920683 494.64037711 -375.28417969 502.39208984 C-386.5479725 508.88499878 -397.77552764 515.43942556 -409 522 C-422.40617881 529.83575666 -435.82920683 537.64037711 -449.28417969 545.39208984 C-460.5479738 551.88499953 -471.77542815 558.43959443 -483 565 C-490.12269934 569.16263083 -497.24674157 573.32290298 -504.37695312 577.47265625 C-506.04303488 578.4427798 -507.70847535 579.41400617 -509.37304688 580.38671875 C-511.37128342 581.55370325 -513.37248926 582.71537055 -515.375 583.875 C-516.43460938 584.49117187 -517.49421875 585.10734375 -518.5859375 585.7421875 C-521 587 -521 587 -523 587 C-523 594.59 -523 602.18 -523 610 C-521.35 610.66 -519.7 611.32 -518 612 C-516.5017027 612.75138689 -515.01609867 613.52852178 -513.54296875 614.328125 C-512.69065674 614.79065674 -511.83834473 615.25318848 -510.96020508 615.72973633 C-510.0452124 616.23142334 -509.13021973 616.73311035 -508.1875 617.25 C-507.21901123 617.77940186 -506.25052246 618.30880371 -505.25268555 618.85424805 C-497.19088549 623.28859396 -489.24633419 627.90906183 -481.31713867 632.57519531 C-473.77434454 637.00068792 -466.15730412 641.27616572 -458.5 645.5 C-448.93698094 650.77635955 -439.47207624 656.19239074 -430.05859375 661.73046875 C-422.60135815 666.10262928 -415.06856352 670.3239439 -407.5 674.5 C-397.93704918 679.77648595 -388.4720795 685.19238882 -379.05859375 690.73046875 C-371.60135815 695.10262928 -364.06856352 699.3239439 -356.5 703.5 C-346.93704918 708.77648595 -337.4720795 714.19238882 -328.05859375 719.73046875 C-320.60135815 724.10262928 -313.06856352 728.3239439 -305.5 732.5 C-295.93704918 737.77648595 -286.4720795 743.19238882 -277.05859375 748.73046875 C-269.60135815 753.10262928 -262.06856352 757.3239439 -254.5 761.5 C-244.93704918 766.77648595 -235.4720795 772.19238882 -226.05859375 777.73046875 C-218.60135815 782.10262928 -211.06856352 786.3239439 -203.5 790.5 C-193.93704918 795.77648595 -184.4720795 801.19238882 -175.05859375 806.73046875 C-167.60135815 811.10262928 -160.06856352 815.3239439 -152.5 819.5 C-142.93704918 824.77648595 -133.4720795 830.19238882 -124.05859375 835.73046875 C-116.60135815 840.10262928 -109.06856352 844.3239439 -101.5 848.5 C-91.93704918 853.77648595 -82.4720795 859.19238882 -73.05859375 864.73046875 C-65.60135467 869.10263132 -58.06850293 873.32382841 -50.5 877.5 C-38.82802591 883.94225263 -27.28682911 890.58715508 -15.80126953 897.35546875 C-11.65627689 899.78885471 -7.494943 902.19406559 -3.33374023 904.59960938 C-1 906 -1 906 0 907 C0.09676951 908.48564244 0.12371755 909.97588629 0.12304783 911.46467686 C0.12503888 912.43505188 0.12702993 913.40542689 0.12908131 914.40520722 C0.12616847 915.483978 0.12325563 916.56274879 0.12025452 917.67420959 C0.12110894 918.81029158 0.12196337 919.94637356 0.12284368 921.11688226 C0.1242118 924.28427548 0.12106457 927.45162833 0.11606562 930.61901677 C0.11176425 934.02939235 0.11320732 937.4397659 0.1139679 940.85014343 C0.11449333 946.76349908 0.1113445 952.67684373 0.10573006 958.59019661 C0.09761769 967.14000823 0.09500011 975.68981451 0.09374207 984.23962956 C0.09155113 998.10970723 0.08488992 1011.97977903 0.07543945 1025.84985352 C0.06626641 1039.32674124 0.05918505 1052.80362737 0.05493164 1066.28051758 C0.05466892 1067.11063963 0.05440619 1067.94076167 0.05413551 1068.79603893 C0.05283051 1072.9603401 0.05156679 1077.12464127 0.05032361 1081.28894246 C0.0399497 1115.85929915 0.02233026 1150.42964904 0 1185 C-2.2162404 1183.90235009 -4.43129679 1182.80241313 -6.64575195 1181.70117188 C-7.57611645 1181.2408255 -7.57611645 1181.2408255 -8.52527618 1180.7711792 C-14.23117535 1177.92976438 -19.71525816 1174.76729523 -25.1875 1171.5 C-33.886349 1166.36380062 -42.65312571 1161.37665946 -51.5 1156.5 C-61.06318466 1151.22394794 -70.52793185 1145.8076045 -79.94140625 1140.26953125 C-87.39864309 1135.89736999 -94.9314593 1131.67609923 -102.5 1127.5 C-112.11104232 1122.19634138 -121.62668861 1116.75581962 -131.09082031 1111.19482422 C-139.12148686 1106.48623407 -147.22738896 1101.92340201 -155.359375 1097.39257812 C-163.31060218 1092.95823989 -171.22519047 1088.46250529 -179.125 1083.9375 C-187.56987166 1079.10095453 -196.02307284 1074.28021649 -204.5 1069.5 C-212.91079924 1064.75525779 -221.30431106 1059.98081983 -229.6875 1055.1875 C-230.2728653 1054.85284729 -230.85823059 1054.51819458 -231.46133423 1054.17340088 C-237.42563159 1050.76332996 -243.38845512 1047.35069331 -249.34959412 1043.93510437 C-252.29510888 1042.24760969 -255.24117253 1040.56107525 -258.1875 1038.875 C-258.76805145 1038.54271393 -259.34860291 1038.21042786 -259.94674683 1037.86807251 C-268.18693278 1033.15384494 -276.45747023 1028.49652332 -284.75 1023.875 C-293.84933297 1018.80374535 -302.85966632 1013.59702847 -311.84082031 1008.31982422 C-320.46111947 1003.2732813 -329.18767016 998.43118811 -337.93310547 993.60571289 C-346.34514922 988.95169098 -354.65573975 984.14409999 -362.94140625 979.26953125 C-370.39864185 974.89737072 -377.93143648 970.6760561 -385.5 966.5 C-395.06295082 961.22351405 -404.5279205 955.80761118 -413.94140625 950.26953125 C-421.39864185 945.89737072 -428.93143648 941.6760561 -436.5 937.5 C-446.06295082 932.22351405 -455.5279205 926.80761118 -464.94140625 921.26953125 C-472.39864185 916.89737072 -479.93143648 912.6760561 -487.5 908.5 C-497.06295082 903.22351405 -506.5279205 897.80761118 -515.94140625 892.26953125 C-523.39864185 887.89737072 -530.93143648 883.6760561 -538.5 879.5 C-548.06295082 874.22351405 -557.5279205 868.80761118 -566.94140625 863.26953125 C-574.39864309 858.89736999 -581.9314593 854.67609923 -589.5 850.5 C-599.11104232 845.19634138 -608.62668861 839.75581962 -618.09082031 834.19482422 C-626.12148686 829.48623407 -634.22738896 824.92340201 -642.359375 820.39257812 C-650.31060218 815.95823989 -658.22519047 811.46250529 -666.125 806.9375 C-674.56987166 802.10095453 -683.02307284 797.28021649 -691.5 792.5 C-699.91079924 787.75525779 -708.30431106 782.98081983 -716.6875 778.1875 C-717.2728653 777.85284729 -717.85823059 777.51819458 -718.46133423 777.17340088 C-724.42563159 773.76332996 -730.38845512 770.35069331 -736.34959412 766.93510437 C-739.29510888 765.24760969 -742.24117253 763.56107525 -745.1875 761.875 C-745.76805145 761.54271393 -746.34860291 761.21042786 -746.94674683 760.86807251 C-756.07186983 755.6475706 -765.22776189 750.48385673 -774.42651367 745.39404297 C-775.33248291 744.89018066 -776.23845215 744.38631836 -777.171875 743.8671875 C-778.1645916 743.3448031 -779.1573082 742.82241871 -780.18010712 742.28420448 C-783.09774145 740.65161793 -785.55560085 738.7551482 -788.12349701 736.61894798 C-807.91549506 721.37965797 -831.49854838 724.05398476 -855.25518751 724.29053831 C-861.69253867 724.33907564 -868.12956399 724.3058954 -874.56698608 724.28309631 C-885.69521753 724.25225766 -896.82247582 724.27644941 -907.95057678 724.33458328 C-919.608765 724.39527157 -931.26643771 724.42659065 -942.92478943 724.41953659 C-943.65235808 724.4191126 -944.37992674 724.41868861 -945.12954293 724.41825177 C-948.82519191 724.4159477 -952.52084032 724.41312713 -956.21648878 724.4101079 C-982.32519485 724.38970414 -1008.43342613 724.43386598 -1034.54199219 724.51660156 C-1059.89033083 724.59677879 -1085.23844729 724.64709846 -1110.58691406 724.65820312 C-1112.18365614 724.65894413 -1113.78039821 724.65968601 -1115.37714028 724.66042876 C-1128.35341801 724.66630642 -1141.32969633 724.67013783 -1154.30597493 724.67347369 C-1214.20437484 724.69034397 -1274.10149736 724.85660413 -1334 725 C-1334 637.55 -1334 550.1 -1334 460 C-1296.42640625 460.1134375 -1258.8528125 460.226875 -1220.140625 460.34375 C-1197.7637864 460.37773752 -1175.38705257 460.41062185 -1153.01020837 460.42332816 C-1139.88045308 460.43086596 -1126.7506986 460.43915035 -1113.62094538 460.44973822 C-1112.03301985 460.45101674 -1110.44509431 460.45227174 -1108.85716875 460.45350294 C-1083.59242716 460.47328661 -1058.32816048 460.54472157 -1033.06361427 460.64347418 C-1007.07339423 460.74478699 -981.08359142 460.7931367 -955.09316702 460.77590374 C-951.412817 460.77348791 -947.73246691 460.77167051 -944.05211639 460.7702179 C-942.96571716 460.76976132 -942.96571716 460.76976132 -941.85737046 460.76929552 C-930.25076566 460.76595084 -918.64504129 460.81758168 -907.03869151 460.8903552 C-895.33841985 460.96252318 -883.63931459 460.97410515 -871.93889818 460.92985225 C-865.61149739 460.90764331 -859.28691198 460.91051263 -852.95984459 460.98466301 C-826.59569054 461.27590336 -805.43327944 461.49311485 -783.825212 445.04373074 C-778.91880048 441.49448062 -773.57661 438.73477228 -768.25 435.875 C-760.14779276 431.37158525 -752.11695668 426.75846532 -744.125 422.0625 C-734.52281393 416.42038573 -724.81779673 410.98597531 -715.06689453 405.60571289 C-707.65084148 401.50272978 -700.30484825 397.29754021 -693 393 C-683.44053137 387.37603639 -673.77705316 381.96344799 -664.06640625 376.60546875 C-656.65053683 372.50253068 -649.30469133 368.29744789 -642 364 C-632.44053137 358.37603639 -622.77705316 352.96344799 -613.06640625 347.60546875 C-605.65053683 343.50253068 -598.30469133 339.29744789 -591 335 C-581.44053137 329.37603639 -571.77705316 323.96344799 -562.06640625 318.60546875 C-554.65053444 314.50252937 -547.30473918 310.29736897 -540 306 C-530.48665873 300.40442707 -520.87344334 295.01205901 -511.21142578 289.67797852 C-502.2899947 284.74267805 -493.45248219 279.6732463 -484.63378906 274.55712891 C-477.25198017 270.28104021 -469.82857068 266.08708411 -462.375 261.9375 C-454.19526069 257.38189828 -446.07444636 252.73969341 -438 248 C-428.94179092 242.68386831 -419.81592195 237.50474841 -410.64111328 232.39282227 C-402.68969694 227.95844967 -394.77496719 223.4625956 -386.875 218.9375 C-378.43012891 214.10095486 -369.97698439 209.28011451 -361.5 204.5 C-352.98284923 199.69647069 -344.48695659 194.85659131 -336 190 C-327.51304243 185.14340812 -319.01705263 180.30370449 -310.5 175.5 C-302.089241 170.75518604 -293.69568932 165.98082005 -285.3125 161.1875 C-284.7271347 160.85284729 -284.14176941 160.51819458 -283.53866577 160.17340088 C-277.57436841 156.76332996 -271.61154488 153.35069331 -265.65040588 149.93510437 C-262.70489112 148.24760969 -259.75882747 146.56107525 -256.8125 144.875 C-256.23194855 144.54271393 -255.65139709 144.21042786 -255.05325317 143.86807251 C-246.81306722 139.15384494 -238.54252977 134.49652332 -230.25 129.875 C-222.15278675 125.36224829 -214.11720806 120.75861303 -206.125 116.0625 C-196.52281393 110.42038573 -186.81779673 104.98597531 -177.06689453 99.60571289 C-169.65084148 95.50272978 -162.30484825 91.29754021 -155 87 C-145.44053137 81.37603639 -135.77705316 75.96344799 -126.06640625 70.60546875 C-118.65053683 66.50253068 -111.30469133 62.29744789 -104 58 C-94.44053137 52.37603639 -84.77705316 46.96344799 -75.06640625 41.60546875 C-66.66346074 36.95641642 -58.36153424 32.15450402 -50.08496094 27.28491211 C-41.28097055 22.12297048 -32.37282527 17.15869648 -23.43359375 12.23632812 C-17.00978171 8.69499585 -10.66054113 5.06030027 -4.37207031 1.28295898 C-2 0 -2 0 0 0 Z " fill="#000000" transform="translate(2000,815)"/>
</svg>
