<?xml version="1.0" encoding="UTF-8"?>
<svg version="1.1" xmlns="http://www.w3.org/2000/svg" width="2000" height="2000">
<path d="M0 0 C1.43402407 0.13204111 2.86733058 0.27188952 4.30029297 0.41499329 C5.09853485 0.49202641 5.89677673 0.56905954 6.71920776 0.64842701 C9.95828258 1.14771458 12.32310054 2.43623714 15.125 4.10546875 C16.23069336 4.75209473 17.33638672 5.3987207 18.47558594 6.06494141 C19.6504517 6.77235952 20.82525481 7.47988169 22 8.1875 C23.23886284 8.91763063 24.47879137 9.64595573 25.71972656 10.37255859 C27.62287209 11.48734491 29.52520787 12.6033182 31.4241333 13.72528076 C37.47370302 17.29888352 43.60449654 20.71938714 49.75 24.125 C58.85065145 29.1938262 67.85972454 34.40300574 76.84082031 39.68017578 C85.46111947 44.7267187 94.18767016 49.56881189 102.93310547 54.39428711 C111.34514922 59.04830902 119.65573975 63.85590001 127.94140625 68.73046875 C135.39864185 73.10262928 142.93143648 77.3239439 150.5 81.5 C160.06295082 86.77648595 169.5279205 92.19238882 178.94140625 97.73046875 C186.39864185 102.10262928 193.93143648 106.3239439 201.5 110.5 C211.06295082 115.77648595 220.5279205 121.19238882 229.94140625 126.73046875 C237.39864185 131.10262928 244.93143648 135.3239439 252.5 139.5 C262.06295082 144.77648595 271.5279205 150.19238882 280.94140625 155.73046875 C288.39864185 160.10262928 295.93143648 164.3239439 303.5 168.5 C313.06295082 173.77648595 322.5279205 179.19238882 331.94140625 184.73046875 C339.39864185 189.10262928 346.93143648 193.3239439 354.5 197.5 C364.06295082 202.77648595 373.5279205 208.19238882 382.94140625 213.73046875 C390.39864185 218.10262928 397.93143648 222.3239439 405.5 226.5 C415.06525038 231.77775476 424.53295539 237.19421789 433.94799805 242.73486328 C441.33831193 247.06881308 448.80757043 251.24324223 456.3125 255.375 C465.69080498 260.53921723 474.94028868 265.87740255 484.125 271.375 C491.86421664 276.00735127 499.62088807 280.50260181 507.64086914 284.63037109 C516.03422633 288.98598751 524.12974963 293.86484166 532.28125 298.65234375 C536.8504051 301.33440186 541.43876679 303.97580885 546.0625 306.5625 C546.98349487 307.07816528 546.98349487 307.07816528 547.9230957 307.60424805 C549.22015365 308.3296649 550.51744395 309.05466643 551.81494141 309.77929688 C563.86696906 316.51227322 575.88713 323.27021779 587.6875 330.4375 C593.63134529 334.04554459 599.57757548 337.38602158 605.84765625 340.40234375 C616.14098504 345.61916094 625.98944671 351.77158611 635.85375977 357.74780273 C642.74291974 361.91983583 649.58417599 365.90813094 656.84765625 369.40234375 C667.14098504 374.61916094 676.98944671 380.77158611 686.85375977 386.74780273 C693.74291974 390.91983583 700.58417599 394.90813094 707.84765625 398.40234375 C718.14098504 403.61916094 727.98944671 409.77158611 737.85375977 415.74780273 C744.73620438 419.91576905 751.56914657 423.9046749 758.828125 427.390625 C769.18693608 432.64657348 779.10507691 438.83907295 789.0625 444.8125 C789.67335449 445.17843262 790.28420898 445.54436523 790.91357422 445.92138672 C793.58378028 447.52614471 796.23707328 449.15051246 798.8671875 450.8203125 C809.2699771 457.3655327 820.05124397 458.15410387 832.11914158 458.1386652 C833.43392203 458.14292853 833.43392203 458.14292853 834.7752637 458.14727798 C837.70277029 458.1555783 840.63023708 458.15688951 843.55775452 458.15821838 C845.68154555 458.16278691 847.80533568 458.16778736 849.92912477 458.17318195 C855.75779602 458.18673932 861.58646145 458.19417446 867.41514432 458.20060861 C873.70339537 458.2086231 879.99163436 458.22231727 886.27987671 458.23532104 C897.17227392 458.2570689 908.06467147 458.27525391 918.95707893 458.29092598 C930.37914554 458.30737509 941.80120587 458.32586124 953.22326469 458.34705925 C953.93384194 458.34837686 954.64441918 458.34969446 955.37652906 458.351052 C958.98529153 458.35775422 962.59405393 458.36449275 966.2028163 458.37124526 C991.7539385 458.41898976 1017.30506656 458.4621801 1042.85620117 458.50268555 C1067.67651801 458.54204289 1092.49682996 458.58348383 1117.31713867 458.62768555 C1118.87831753 458.63046289 1120.4394964 458.63324016 1122.00067526 458.63601738 C1134.68620612 458.65859509 1147.37173673 458.6813165 1160.05726727 458.70407274 C1218.70483511 458.80917549 1277.35241555 458.90377923 1336 459 C1336 546.45 1336 633.9 1336 724 C1300.14085937 723.98839844 1264.28171875 723.97679687 1227.3359375 723.96484375 C1205.34220156 723.95988994 1183.34846602 723.95509637 1161.35472989 723.95150678 C1149.51888697 723.94957323 1137.68304406 723.94758635 1125.84720117 723.94547401 C1124.33453077 723.94520416 1122.82186037 723.94493579 1121.30918998 723.94466891 C1097.20771481 723.94040447 1073.10624199 723.9329025 1049.00476824 723.92370278 C1024.22767757 723.91426238 999.4505882 723.90811275 974.67349577 723.90608501 C971.17136478 723.90579687 967.6692338 723.90547123 964.16710281 723.90512276 C963.47785465 723.90505533 962.78860648 723.90498791 962.078472 723.90491844 C950.9976241 723.90373818 939.91678023 723.89910405 928.83593397 723.89316797 C917.68738646 723.8872697 906.53884286 723.88511555 895.39029346 723.88649862 C889.35326009 723.88713883 883.3162385 723.88616028 877.27920723 723.88079453 C871.74693749 723.87591341 866.21468741 723.87569222 860.68241675 723.87910111 C858.68621817 723.87952217 856.69001833 723.87826632 854.69382219 723.87511682 C830.04467515 723.83850349 807.50642008 725.116498 786.60107422 739.65185547 C779.76932435 744.32125478 772.5501923 748.24071537 765.30001831 752.2164917 C763.52395004 753.19069243 761.74814186 754.16536276 759.97265625 755.140625 C759.38485886 755.46346466 758.79706146 755.78630432 758.19145203 756.118927 C752.40041244 759.31062416 746.69637692 762.64319796 741 766 C731.44099097 771.62472132 721.77702924 777.03656521 712.06640625 782.39453125 C704.65053683 786.49746932 697.30469133 790.70255211 690 795 C681.56777414 799.96079158 673.06580573 804.77365988 664.5 809.5 C654.68182344 814.91774927 644.95878111 820.47498306 635.28735352 826.15014648 C627.95734426 830.45034504 620.57827155 834.64941027 613.15869141 838.79248047 C599.32207 846.53235035 585.55926678 854.3963231 571.83886719 862.34008789 C563.35395245 867.24263689 554.81128284 872.03517 546.25 876.80273438 C539.15739286 880.76336738 532.12841045 884.82148078 525.125 888.9375 C515.52287577 894.57971642 505.81779358 900.01402643 496.06689453 905.39428711 C488.65083577 909.49727338 481.3049601 913.70264363 474 918 C463.29229399 924.29619161 452.45581784 930.34077331 441.5859375 936.3515625 C424.08407844 946.03181681 406.73763703 955.99024713 389.37831116 965.92301941 C382.33946818 969.9505326 375.29786154 973.97320691 368.25640869 977.99615479 C366.51076529 978.9934995 364.76514076 979.99087723 363.01953125 980.98828125 C362.44303833 981.317677 361.86654541 981.64707275 361.27258301 981.9864502 C357.72168489 984.01557021 354.17145431 986.04585315 350.6217041 988.07698059 C347.64384696 989.78085584 344.66574097 991.48429574 341.6875 993.1875 C340.81016205 993.68925247 340.81016205 993.68925247 339.9151001 994.20114136 C331.15265183 999.21118109 322.36979176 1004.18412132 313.57641602 1009.13964844 C306.39859449 1013.19209697 299.25838259 1017.30742398 292.125 1021.4375 C282.54855695 1026.9820558 272.91763753 1032.41906873 263.25 1037.80273438 C256.15739286 1041.76336738 249.12841045 1045.82148078 242.125 1049.9375 C232.52287577 1055.57971642 222.81779358 1061.01402643 213.06689453 1066.39428711 C205.65084148 1070.49727022 198.30484825 1074.70245979 191 1079 C181.44053137 1084.62396361 171.77705316 1090.03655201 162.06640625 1095.39453125 C154.65053112 1099.49747247 147.30480318 1103.70273594 140 1108 C129.29229399 1114.29619161 118.45581784 1120.34077331 107.5859375 1126.3515625 C91.77374959 1135.09726201 76.09358268 1144.07800319 60.41137695 1153.05395508 C52.12215273 1157.79685121 43.81120259 1162.50013846 35.48535156 1167.1784668 C30.40748206 1170.04137787 25.36269691 1172.95282012 20.34375 1175.91796875 C18.69197754 1176.8922583 18.69197754 1176.8922583 17.00683594 1177.88623047 C14.87638899 1179.14629242 12.7492823 1180.41202344 10.62597656 1181.68408203 C9.67174805 1182.24853027 8.71751953 1182.81297852 7.734375 1183.39453125 C6.89100586 1183.89831299 6.04763672 1184.40209473 5.17871094 1184.92114258 C3 1186 3 1186 0 1186 C-0.20598419 1149.68456316 -0.36457866 1113.36922872 -0.45958797 1077.053328 C-0.47084437 1072.76626394 -0.48249327 1068.47920102 -0.49438477 1064.19213867 C-0.49674556 1063.33865902 -0.49910635 1062.48517937 -0.50153869 1061.6058367 C-0.54070445 1047.78495322 -0.61166738 1033.96440654 -0.69437516 1020.14372288 C-0.7785289 1005.96318448 -0.82852677 991.78282251 -0.84679645 977.60204464 C-0.85914802 968.85098784 -0.89816119 960.10088296 -0.9712482 951.35011918 C-1.01881024 945.34995674 -1.03320401 939.35028663 -1.0215124 933.34994935 C-1.01574509 929.88724861 -1.02460199 926.42621127 -1.07284927 922.96380615 C-1.11755788 919.20768749 -1.10689681 915.4556586 -1.08229065 911.69944763 C-1.10850622 910.60702631 -1.1347218 909.51460499 -1.16173178 908.38907999 C-1.08354347 903.98130032 -1.02972882 901.15290068 1.98037255 897.78274357 C4.24748214 895.99107026 6.50638628 894.45535624 9 893 C9.89775146 892.45279297 10.79550293 891.90558594 11.72045898 891.34179688 C12.47141846 890.97119141 13.22237793 890.60058594 13.99609375 890.21875 C14.87064209 889.77740723 15.74519043 889.33606445 16.64624023 888.88134766 C17.56735596 888.42550293 18.48847168 887.9696582 19.4375 887.5 C32.57873502 880.81656613 45.2823241 873.45022952 58 866 C60.97911433 864.25854829 63.95871197 862.51792667 66.93847656 860.77758789 C68.90299809 859.63020148 70.86718868 858.48224826 72.83105469 857.33374023 C80.42148142 852.90145108 88.04950773 848.53716236 95.6875 844.1875 C113.07018743 834.28570974 130.31411758 824.14960517 147.52490234 813.95239258 C161.6967246 805.55663395 175.96822079 797.33677061 190.25146484 789.13232422 C202.44584951 782.12696094 214.60366403 775.06968632 226.6875 767.875 C235.90070078 762.39073212 245.17278924 757.0327556 254.52172852 751.78369141 C267.23531833 744.63772032 279.7971922 737.23133119 292.37200928 729.84484863 C295.47689643 728.0210948 298.58211802 726.19791111 301.6875 724.375 C302.30683411 724.01136353 302.92616821 723.64772705 303.56427002 723.27307129 C312.00182622 718.32076647 320.4701873 713.42692175 328.97607422 708.59277344 C336.45748279 704.3312663 343.8879402 699.98445323 351.3125 695.625 C351.93020264 695.26234039 352.54790527 694.89968079 353.18432617 694.52603149 C355.66266639 693.07082026 358.140878 691.61539032 360.618927 690.15968323 C373.7698253 682.43498158 386.93101475 674.72987254 400.1875 667.1875 C408.60146057 662.39931083 416.96420612 657.52641611 425.3125 652.625 C425.93207581 652.26128296 426.55165161 651.89756592 427.19000244 651.52282715 C429.67707128 650.06266193 432.16398396 648.60223116 434.65072632 647.14151001 C449.63996487 638.33686838 464.66490774 629.59993003 479.76812744 620.99230957 C499.40656048 610.06235859 499.40656048 610.06235859 518.54711914 598.32543945 C521 597 521 597 525 597 C525 589.41 525 581.82 525 574 C523.35 573.67 521.7 573.34 520 573 C517.61010742 571.9152832 517.61010742 571.9152832 515.10546875 570.55078125 C513.69080322 569.78399048 513.69080322 569.78399048 512.24755859 569.00170898 C510.73282959 568.16555054 510.73282959 568.16555054 509.1875 567.3125 C508.12869629 566.7337915 507.06989258 566.15508301 505.97900391 565.55883789 C497.52036535 560.90689928 489.18049211 556.06366648 480.86401367 551.16333008 C474.30919639 547.31160731 467.69259896 543.6064369 461 540 C452.33714246 535.32946825 443.82782691 530.43520279 435.34765625 525.44165039 C426.34462034 520.158052 417.23272609 515.08548142 408.08325195 510.0612793 C402.96251023 507.2413788 397.92704002 504.36935239 392.99853516 501.22680664 C388.91484063 498.72001883 384.65883485 496.51405682 380.4375 494.25 C373.53650788 490.51679762 366.71870013 486.71509368 360.01831055 482.63232422 C343.8488958 472.80432149 327.31745244 463.57354894 310.76123047 454.41772461 C303.08461739 450.16970181 295.4510008 445.85394838 287.84375 441.4831543 C281.15391532 437.64456711 274.42487696 433.87939242 267.6875 430.125 C259.44479164 425.52844521 251.26164492 420.84416754 243.125 416.0625 C233.52285356 410.42031956 223.81779488 404.98597429 214.06689453 399.60571289 C205.65485078 394.95169098 197.34426025 390.14409999 189.05859375 385.26953125 C181.60135815 380.89737072 174.06856352 376.6760561 166.5 372.5 C156.93704918 367.22351405 147.4720795 361.80761118 138.05859375 356.26953125 C130.60135691 351.89736999 123.0685407 347.67609923 115.5 343.5 C105.89413844 338.19920027 96.38325082 332.7622081 86.92456055 327.20361328 C78.72983966 322.39833902 70.45742373 317.74205506 62.15942383 313.11791992 C54.56833031 308.88622319 47.01486047 304.59315169 39.4777832 300.26611328 C33.84774709 297.03950485 28.18430796 293.87981405 22.5 290.75 C2.99018405 279.99018405 2.99018405 279.99018405 0 277 C-0.09675527 275.5195715 -0.12371762 274.03452727 -0.12304783 272.55094051 C-0.12503888 271.58404889 -0.12702993 270.61715727 -0.12908131 269.6209659 C-0.12616847 268.54608606 -0.12325563 267.47120623 -0.12025452 266.36375427 C-0.12110894 265.23175584 -0.12196337 264.09975742 -0.12284368 262.933456 C-0.12450178 259.10853507 -0.11897174 255.28365719 -0.11352539 251.45874023 C-0.112688 248.72956311 -0.11335704 246.00038685 -0.1139679 243.27120972 C-0.11449333 237.37913498 -0.11134451 231.48707128 -0.10573006 225.59499931 C-0.09761767 217.07595678 -0.09500011 208.55691961 -0.09374207 200.03787363 C-0.09155113 186.21771025 -0.08488993 172.39755276 -0.07543945 158.57739258 C-0.0662664 145.14900746 -0.05918505 131.72062394 -0.05493164 118.29223633 C-0.05453756 117.05153375 -0.05453756 117.05153375 -0.05413551 115.78576647 C-0.05283051 111.63644938 -0.05156679 107.48713228 -0.05032361 103.33781517 C-0.03994971 68.89187254 -0.02233028 34.4459369 0 0 Z " fill="#FFFFFF" transform="translate(0,0)"/>
<path d="M0 0 C0.18303812 36.34950584 0.32404004 72.69893099 0.40852264 109.04880266 C0.41852851 113.33844406 0.42888306 117.62808456 0.43945312 121.91772461 C0.44260085 123.19873102 0.44260085 123.19873102 0.44581217 124.50561634 C0.48064013 138.34074613 0.54372607 152.17561048 0.61722237 166.01058271 C0.69198668 180.20241603 0.73646002 194.39411016 0.75270796 208.58613235 C0.76369514 217.34631984 0.79841774 226.10575715 0.86333174 234.86571375 C0.90556079 240.86957731 0.91841441 246.87305205 0.90801102 252.8770534 C0.9028772 256.34341874 0.91084368 259.80847179 0.9536438 263.2746048 C0.99328442 267.03114809 0.98394251 270.78444753 0.96203613 274.5410614 C0.99699023 276.18843191 0.99699023 276.18843191 1.03265047 277.86908263 C0.91871724 285.06631745 0.91871724 285.06631745 -1.72257328 287.75063288 C-3.77201918 289.05857122 -5.76260965 290.05650258 -8 291 C-9.15242188 291.59683594 -10.30484375 292.19367188 -11.4921875 292.80859375 C-13.74214989 293.8920052 -15.99214971 294.9753389 -18.2421875 296.05859375 C-22.0548303 297.96465568 -25.67208798 300.16175619 -29.31347656 302.3737793 C-33.98736816 305.2030043 -38.71612849 307.93850301 -43.4375 310.6875 C-45.01337891 311.60595703 -45.01337891 311.60595703 -46.62109375 312.54296875 C-53.66886522 316.64846669 -60.72503744 320.73925168 -67.78613281 324.82177734 C-77.17922776 330.25542459 -86.54825462 335.73033449 -95.91943359 341.20166016 C-101.94265414 344.71783091 -107.96732485 348.23151687 -113.9921875 351.74487305 C-119.03161039 354.683852 -124.06975988 357.62497376 -129.10546875 360.5703125 C-138.44159815 366.02829981 -147.78731437 371.46547148 -157.1875 376.8125 C-165.60151186 381.60059305 -173.96426704 386.47348509 -182.3125 391.375 C-183.23837418 391.91858154 -183.23837418 391.91858154 -184.18295288 392.47314453 C-186.66177787 393.928643 -189.14046901 395.3843691 -191.6190033 396.84036255 C-205.72667046 405.12705291 -219.85768885 413.36917009 -234.07495117 421.46655273 C-243.74184046 426.97943744 -253.34582284 432.59940956 -262.95166016 438.21777344 C-267.96547417 441.14912393 -272.98287012 444.07432963 -278 447 C-283.97778565 450.48619134 -289.95505993 453.97324224 -295.9296875 457.46484375 C-306.20532451 463.46776997 -316.49629401 469.44203807 -326.8125 475.375 C-335.81462497 480.55289117 -344.76487421 485.81138323 -353.6875 491.125 C-362.77980697 496.53756633 -371.93012298 501.82341823 -381.15917969 506.9987793 C-388.97066894 511.39055721 -396.71192555 515.89704633 -404.4375 520.4375 C-405.05147644 520.79829651 -405.66545288 521.15909302 -406.29803467 521.53082275 C-408.75574703 522.97538048 -411.21319952 524.4203788 -413.67028809 525.86599731 C-426.79937044 533.5900158 -439.94769072 541.27961537 -453.1875 548.8125 C-460.97423169 553.24374781 -468.71880776 557.74442012 -476.44543457 562.27938843 C-478.30261827 563.36920131 -480.16052278 564.45777658 -482.01855469 565.54614258 C-487.44752274 568.72820374 -492.87179403 571.91711179 -498.27284241 575.14639282 C-499.94142088 576.14307164 -501.61265181 577.1353056 -503.28393555 578.12744141 C-505.33166456 579.34336473 -507.37507956 580.56659374 -509.41333008 581.79833984 C-510.32751709 582.3392627 -511.2417041 582.88018555 -512.18359375 583.4375 C-512.97306396 583.91058594 -513.76253418 584.38367187 -514.57592773 584.87109375 C-517 586 -517 586 -523 587 C-523 594.59 -523 602.18 -523 610 C-521.35 610.33 -519.7 610.66 -518 611 C-515.96397487 611.94539641 -513.96066363 612.96270486 -511.984375 614.02734375 C-510.82462158 614.64939697 -509.66486816 615.2714502 -508.4699707 615.91235352 C-507.22976476 616.58700596 -505.98977913 617.26206355 -504.75 617.9375 C-503.47038864 618.62899591 -502.19068425 619.3203197 -500.91088867 620.01147461 C-493.64735542 623.94712392 -486.45228541 627.98095007 -479.36645508 632.22924805 C-473.29366487 635.86372659 -467.12190577 639.30956228 -460.9375 642.75 C-452.61010312 647.3864671 -444.34125493 652.10689581 -436.125 656.9375 C-426.52297736 662.57988489 -416.81778857 668.01402919 -407.06689453 673.39428711 C-398.65485078 678.04830902 -390.34426025 682.85590001 -382.05859375 687.73046875 C-374.60135716 692.10262986 -367.06854862 696.32391475 -359.5 700.5 C-349.68182344 705.91774927 -339.95878111 711.47498306 -330.28735352 717.15014648 C-322.96468139 721.44604067 -315.59297096 725.64066762 -308.18066406 729.77929688 C-303.71748733 732.27771645 -299.26549354 734.79599039 -294.8125 737.3125 C-293.82999268 737.86760254 -292.84748535 738.42270508 -291.83520508 738.99462891 C-284.55800137 743.10993083 -277.29921038 747.2566573 -270.04711914 751.41601562 C-265.38326745 754.08529965 -260.70585805 756.72725024 -256.0078125 759.3359375 C-244.08916684 765.95553552 -232.29295398 772.71671958 -220.67285156 779.85083008 C-214.84492039 783.40262275 -208.94399313 786.59119228 -202.81518555 789.59277344 C-198.79502523 791.60233064 -194.93075696 793.8400716 -191.0625 796.125 C-189.41046562 797.09037337 -187.75811022 798.05519754 -186.10546875 799.01953125 C-185.26419434 799.51146973 -184.42291992 800.0034082 -183.55615234 800.51025391 C-179.34174278 802.96644561 -175.1099077 805.39186434 -170.875 807.8125 C-170.00987793 808.30717773 -169.14475586 808.80185547 -168.25341797 809.31152344 C-161.42169987 813.20860338 -154.55689949 817.04484736 -147.6875 820.875 C-139.44491273 825.47177888 -131.26165043 830.15582922 -123.125 834.9375 C-113.52285356 840.57968044 -103.81779488 846.01402571 -94.06689453 851.39428711 C-85.65485078 856.04830902 -77.34426025 860.85590001 -69.05859375 865.73046875 C-61.60134696 870.10263584 -54.06835787 874.32355533 -46.5 878.5 C-37.57193334 883.43156552 -28.69066946 888.43238456 -19.875 893.5625 C-18.91013672 894.12195312 -17.94527344 894.68140625 -16.95117188 895.2578125 C-16.03658203 895.79277344 -15.12199219 896.32773438 -14.1796875 896.87890625 C-13.39319824 897.3385376 -12.60670898 897.79816895 -11.79638672 898.27172852 C-10.8735791 898.84205811 -9.95077148 899.4123877 -9 900 C-8.27275083 900.3575676 -7.54550166 900.7151352 -6.79621464 901.08353817 C-0.51235903 904.52801925 -0.51235903 904.52801925 0.82984078 908.38408923 C1.13788806 911.39303753 1.1565148 914.28934175 1.08229065 917.31344604 C1.08998047 918.4578837 1.0976703 919.60232136 1.10559314 920.78143895 C1.12042897 924.61973942 1.07090756 928.4545059 1.02172852 932.29248047 C1.01417848 935.0421218 1.02021797 937.79169394 1.02571106 940.54133606 C1.03042725 946.46261105 1.00222437 952.38299258 0.95157051 958.30404282 C0.87838291 966.86469373 0.85498333 975.42491322 0.84367859 983.98584308 C0.82398753 997.87557252 0.76411185 1011.76482589 0.67895508 1025.65429688 C0.59632628 1039.1454836 0.53262936 1052.63654096 0.49438477 1066.12792969 C0.490838 1067.37562283 0.490838 1067.37562283 0.48721958 1068.64852189 C0.47547412 1072.82145314 0.46410078 1076.99438532 0.45291245 1081.16731811 C0.3596326 1115.77855143 0.20113296 1150.38923178 0 1185 C-11.49529927 1182.31562456 -22.22845247 1174.60271384 -32.27636719 1168.67895508 C-39.95239132 1164.16347305 -47.70092503 1159.79902412 -55.5 1155.5 C-64.02583744 1150.79682107 -72.48525557 1146.0043369 -80.875 1141.0625 C-89.81235266 1135.79950062 -98.84332943 1130.73465377 -107.9375 1125.75 C-116.30571561 1121.16298211 -124.63321844 1116.53186977 -132.83178711 1111.64648438 C-144.56133887 1104.66768412 -156.51159098 1098.05990012 -168.4296875 1091.41015625 C-178.17052982 1085.97402374 -187.89120988 1080.52528709 -197.47900391 1074.82299805 C-204.73448267 1070.52728843 -212.10422913 1066.43809914 -219.46704102 1062.33007812 C-226.47541022 1058.41823178 -233.46763566 1054.48007295 -240.4375 1050.5 C-241.25831055 1050.03223145 -242.07912109 1049.56446289 -242.92480469 1049.08251953 C-246.94501519 1046.78255068 -250.93738758 1044.44484242 -254.90234375 1042.05078125 C-260.25301871 1038.82718269 -265.68049111 1035.74922907 -271.125 1032.6875 C-272.13272461 1032.11918457 -273.14044922 1031.55086914 -274.17871094 1030.96533203 C-278.5770263 1028.48575896 -282.97798682 1026.01095751 -287.3828125 1023.54296875 C-294.45277887 1019.58045848 -301.49129421 1015.57009058 -308.5 1011.5 C-318.92412124 1005.4478546 -329.42846625 999.54785071 -339.95703125 993.6796875 C-358.94172596 983.08795215 -358.94172596 983.08795215 -367.375 978.0625 C-375.09477527 973.46338308 -382.95141722 969.12343074 -390.81781006 964.78103638 C-398.94184515 960.29299514 -407.00027585 955.70705505 -415 951 C-423.43218797 946.03914794 -431.93417919 941.22630614 -440.5 936.5 C-450.06295082 931.22351405 -459.5279205 925.80761118 -468.94140625 920.26953125 C-476.39864185 915.89737072 -483.93143648 911.6760561 -491.5 907.5 C-501.06295082 902.22351405 -510.5279205 896.80761118 -519.94140625 891.26953125 C-528.5278862 886.23529729 -537.22328806 881.41114721 -545.93798828 876.60327148 C-553.3121489 872.52380271 -560.61387286 868.339544 -567.875 864.0625 C-576.81235266 858.79950062 -585.84332943 853.73465377 -594.9375 848.75 C-603.30571561 844.16298211 -611.63321844 839.53186977 -619.83178711 834.64648438 C-631.56133887 827.66768412 -643.51159098 821.05990012 -655.4296875 814.41015625 C-665.17052982 808.97402374 -674.89120988 803.52528709 -684.47900391 797.82299805 C-691.73448267 793.52728843 -699.10422913 789.43809914 -706.46704102 785.33007812 C-713.47541022 781.41823178 -720.46763566 777.48007295 -727.4375 773.5 C-728.25831055 773.03223145 -729.07912109 772.56446289 -729.92480469 772.08251953 C-733.94251434 769.78398142 -737.93229325 767.44767586 -741.89453125 765.0546875 C-747.28750918 761.80538818 -752.76141214 758.70924389 -758.25 755.625 C-760.27999834 754.479256 -762.30994641 753.33342293 -764.33984375 752.1875 C-767.64080676 750.3265691 -770.94464469 748.47112585 -774.25390625 746.625 C-779.40799289 743.73534968 -784.403802 740.79223048 -789.1875 737.3125 C-800.15928001 729.45505885 -812.23407282 726.0648067 -825.5818224 725.42939091 C-826.40964399 725.38837525 -827.23746558 725.3473596 -828.09037267 725.30510104 C-837.78932259 724.86430278 -847.48390704 724.86427664 -857.19084167 724.87974548 C-859.26139044 724.87930832 -861.33193915 724.87843076 -863.40248758 724.87715632 C-869.03755087 724.87493981 -874.67259485 724.87889327 -880.30765569 724.88393438 C-886.40485655 724.88827993 -892.50205645 724.88678956 -898.59925842 724.8860321 C-909.1449883 724.88550946 -919.69071268 724.88859386 -930.23644066 724.89426994 C-941.28739641 724.90020261 -952.33834969 724.90403904 -963.38930702 724.90512276 C-964.07840167 724.9051915 -964.76749631 724.90526024 -965.47747261 724.90533106 C-968.97754476 724.90566943 -972.47761691 724.9059708 -975.97768907 724.90625793 C-1000.71909583 724.90835405 -1025.46049935 724.91507937 -1050.2019043 724.92456055 C-1074.22631819 724.93375629 -1098.25073119 724.94081743 -1122.27514648 724.94506836 C-1123.78789856 724.945339 -1125.30065064 724.94560971 -1126.81340271 724.94588047 C-1138.52697768 724.94796627 -1150.24055267 724.94991785 -1161.95412767 724.95183504 C-1219.30275482 724.96125728 -1276.65137368 724.9813783 -1334 725 C-1334 637.55 -1334 550.1 -1334 460 C-1298.21046875 460.02320313 -1262.4209375 460.04640625 -1225.546875 460.0703125 C-1203.57981281 460.0802215 -1181.6127522 460.08980893 -1159.64568922 460.09698644 C-1147.8219118 460.1008534 -1135.99813443 460.10482708 -1124.17435713 460.10905199 C-1122.66329692 460.10959168 -1121.15223672 460.11012842 -1119.64117651 460.11066218 C-1095.58162981 460.11918526 -1071.52209256 460.13418486 -1047.46255156 460.15259444 C-1022.7206969 460.17149158 -997.97884746 460.18377829 -973.23698571 460.18782998 C-969.73677922 460.18840623 -966.23657274 460.1890575 -962.73636627 460.18975449 C-962.04752264 460.18988933 -961.35867901 460.19002418 -960.64896133 460.19016311 C-949.59160869 460.19252013 -938.53427224 460.20177887 -927.47692617 460.21366407 C-916.34171628 460.22548402 -905.2065186 460.22976353 -894.07130173 460.22700275 C-888.0456626 460.22572556 -882.02007074 460.22764229 -875.99444008 460.23841095 C-870.4655385 460.24821916 -864.93671549 460.24858632 -859.40781012 460.24179779 C-857.41957891 460.24096008 -855.43134258 460.24343257 -853.44312128 460.24976636 C-843.64894525 460.27912414 -833.9553658 460.06325024 -824.20084 459.12559319 C-823.40069689 459.05014741 -822.60055379 458.97470163 -821.77616392 458.89696962 C-807.65854719 457.3837252 -795.02605592 452.16594336 -783.5625 443.8125 C-777.97141158 439.7872702 -771.97899177 436.60163068 -765.93310547 433.32495117 C-760.13081456 430.17880353 -754.38790583 426.95204984 -748.6875 423.625 C-741.84142849 419.63501505 -734.96562721 415.70296504 -728.0625 411.8125 C-719.23691377 406.83529296 -710.4240554 401.83642784 -701.625 396.8125 C-701.02372284 396.46929718 -700.42244568 396.12609436 -699.802948 395.77249146 C-692.87838363 391.81795302 -685.97787174 387.82767255 -679.125 383.75 C-672.02103877 379.52478542 -664.77123749 375.59362473 -657.49804688 371.66870117 C-650.94768792 368.11380916 -644.51851054 364.39136579 -638.125 360.5625 C-630.58025821 356.04520183 -622.94685707 351.76231344 -615.1875 347.625 C-606.84525506 343.17328456 -598.69935919 338.48286211 -590.625 333.5625 C-580.97117525 327.68200915 -571.15139155 322.22219491 -561.1706543 316.91821289 C-554.50459462 313.36973431 -547.9490269 309.69963948 -541.46972656 305.82250977 C-535.29492588 302.13896808 -529.0295074 298.62651359 -522.75 295.125 C-512.305059 289.29874158 -501.90438189 283.40065275 -491.52978516 277.45019531 C-487.33498416 275.04553232 -483.13606199 272.64808816 -478.9375 270.25 C-473.04447148 266.8834329 -467.1523723 263.51525253 -461.26171875 260.14453125 C-444.6424614 250.63648012 -427.99375868 241.18198302 -411.3046875 231.796875 C-401.57235881 226.31783004 -391.88157119 220.77950094 -382.25 215.125 C-372.60380439 209.46370226 -362.85585979 204.00660342 -353.06298828 198.60375977 C-345.68845914 194.52419935 -338.38647409 190.33967349 -331.125 186.0625 C-322.33286534 180.88582258 -313.44787106 175.90024833 -304.5 171 C-294.4698827 165.50631212 -284.5380827 159.87581884 -274.67797852 154.08032227 C-265.14146317 148.47816838 -255.51665153 143.03894073 -245.87646484 137.61767578 C-233.39563657 130.59866643 -220.92634079 123.56328434 -208.54492188 116.37011719 C-201.46329066 112.25924496 -194.35942795 108.18754735 -187.25 104.125 C-186.35390015 103.61285446 -186.35390015 103.61285446 -185.43969727 103.09036255 C-176.29553103 97.86585199 -167.12889155 92.68191294 -157.95239258 87.5144043 C-152.40856055 84.38492405 -146.90795824 81.19325863 -141.4375 77.9375 C-135.14547374 74.19422884 -128.75536635 70.66405717 -122.3125 67.1875 C-114.92126152 63.1973302 -107.6437509 59.06500927 -100.4375 54.75 C-91.87084021 49.62523236 -83.18936366 44.73606147 -74.4375 39.9375 C-63.40252423 33.88606746 -52.43349246 27.7335535 -41.52685547 21.453125 C-36.16516856 18.3697665 -30.79284646 15.30486815 -25.41821289 12.24414062 C-21.5002335 10.01104517 -17.5909851 7.76722671 -13.7109375 5.46875 C-12.74401978 4.90075684 -12.74401978 4.90075684 -11.75756836 4.32128906 C-10.07300219 3.32975635 -8.39368306 2.32932371 -6.71484375 1.328125 C-4 0 -4 0 0 0 Z " fill="#FFFFFF" transform="translate(2000,815)"/>
</svg>
