<?xml version="1.0" encoding="UTF-8"?>
<svg version="1.1" xmlns="http://www.w3.org/2000/svg" width="2000" height="2000">
<path d="M0 0 C1.28016882 -0.00317733 2.56033764 -0.00635465 3.87929945 -0.00962826 C7.42448719 -0.0181416 10.96956846 -0.01429446 14.51475747 -0.00838061 C18.38913032 -0.00414138 22.26348439 -0.01155278 26.13785267 -0.01744422 C32.9516199 -0.02620108 39.76535735 -0.0275257 46.57912885 -0.02400994 C56.77975321 -0.01877952 66.98034856 -0.02504241 77.1809696 -0.03352342 C94.56622027 -0.04763207 111.95146186 -0.05219108 129.33671772 -0.05155188 C146.95737009 -0.05093017 164.57801363 -0.05460865 182.19866383 -0.06353194 C183.86751499 -0.06437162 183.86751499 -0.06437162 185.57008031 -0.06522826 C190.101347 -0.06751988 194.63261366 -0.06983823 199.16388031 -0.07219155 C246.44895676 -0.09670869 293.73402961 -0.10685857 341.01911168 -0.11171871 C346.1098829 -0.11224241 351.20065412 -0.11276825 356.29142535 -0.11329538 C357.55469579 -0.11342444 358.81796624 -0.1135535 360.11951761 -0.11368647 C388.1065978 -0.11659142 416.09367698 -0.12274957 444.08075649 -0.12939269 C455.60294051 -0.13211614 467.12512455 -0.13474719 478.64730859 -0.13737833 C480.55693771 -0.1378147 480.55693771 -0.1378147 482.5051452 -0.13825989 C554.78528607 -0.15472892 627.0654264 -0.16670508 699.34556907 -0.16910475 C702.75873606 -0.16921907 706.17190306 -0.16933909 709.58507006 -0.16945833 C721.22856499 -0.16986304 732.87205992 -0.17024651 744.51555485 -0.17062896 C750.01277071 -0.17080973 755.50998657 -0.1709935 761.00720243 -0.17117917 C764.44700572 -0.17129518 767.88680902 -0.17140947 771.32661232 -0.17151995 C836.28928752 -0.17361264 901.25195565 -0.1803584 966.21462643 -0.20574957 C967.24036969 -0.2061503 967.24036969 -0.2061503 968.28683504 -0.20655912 C989.65275998 -0.21492117 1011.01868468 -0.22386202 1032.38460934 -0.23291022 C1054.30797898 -0.24219278 1076.23134865 -0.25139388 1098.15471852 -0.26013094 C1098.82977147 -0.26040028 1099.50482442 -0.26066961 1100.20033352 -0.2609471 C1142.48544802 -0.27779248 1184.77055971 -0.28856372 1227.05567753 -0.29285532 C1229.01489988 -0.29305548 1229.01489988 -0.29305548 1231.01370248 -0.29325968 C1259.68661319 -0.29613197 1288.3595238 -0.29754924 1317.03243465 -0.29761789 C1327.29214377 -0.29765757 1337.55185288 -0.29781452 1347.811562 -0.29803241 C1350.36393881 -0.29808605 1352.91631562 -0.29813417 1355.46869243 -0.29817673 C1396.14201874 -0.29892026 1436.81532222 -0.31458775 1477.4886414 -0.33778804 C1518.45513516 -0.36105264 1559.42159951 -0.36828797 1600.38809817 -0.35360717 C1606.04997598 -0.35157952 1611.71185383 -0.34972557 1617.37373173 -0.34797484 C1618.48360617 -0.34762478 1619.5934806 -0.34727473 1620.73698759 -0.34691406 C1638.30540054 -0.34182892 1655.87376054 -0.35352274 1673.44216259 -0.37221939 C1690.72067357 -0.39025724 1707.99910842 -0.39043133 1725.27761944 -0.37165707 C1735.40478482 -0.3611865 1745.53172259 -0.36432674 1755.65886751 -0.38777583 C1762.39175066 -0.4019928 1769.12446601 -0.39794493 1775.85733786 -0.37929433 C1779.66956336 -0.36923802 1783.48134323 -0.36667824 1787.29353942 -0.38672988 C1807.14340045 -0.48407984 1826.79124555 0.23530853 1844.94320309 9.25415033 C1845.27320309 9.91415033 1845.60320309 10.57415033 1845.94320309 11.25415033 C1847.60966334 11.9213328 1849.27637748 12.58788117 1850.94320309 13.25415033 C1868.14046422 23.91509989 1880.86238736 37.12134685 1889.94320309 55.25415033 C1890.29769528 55.86903314 1890.65218747 56.48391596 1891.01742184 57.11743158 C1896.61822774 67.10147687 1900.06605814 80.40923978 1900.06976493 91.80302646 C1900.07254025 92.89129421 1900.07531556 93.97956197 1900.07817498 95.10080753 C1900.07613864 96.28886097 1900.0741023 97.4769144 1900.07200426 98.70096946 C1900.07377927 99.9759392 1900.07555428 101.25090893 1900.07738308 102.56451412 C1900.08218568 106.11840786 1900.08074724 109.67227623 1900.07832538 113.22617139 C1900.0767851 117.10132232 1900.0810384 120.9764676 1900.08455214 124.85161665 C1900.08993114 131.67452278 1900.09156852 138.49742203 1900.0908014 145.32033012 C1900.08966724 155.53465696 1900.09424303 165.74897577 1900.09993224 175.9633008 C1900.10945062 193.36981563 1900.11415247 210.77632884 1900.11624157 228.18284601 C1900.11836884 245.82978111 1900.12262574 263.47671372 1900.1294843 281.12364763 C1900.12991491 282.23708347 1900.13034552 283.35051931 1900.13078919 284.49769563 C1900.1325475 289.03235857 1900.13431715 293.56702151 1900.13610221 298.10168444 C1900.15771044 353.10098017 1900.16858218 408.10027639 1900.17757845 463.09957539 C1900.18051174 480.93261613 1900.18388153 498.76565676 1900.18754566 516.59869736 C1900.18780395 517.85649108 1900.18806224 519.11428479 1900.18832836 520.41019346 C1900.18937456 525.49863079 1900.19042299 530.58706811 1900.19147418 535.67550543 C1900.20943938 622.71474276 1900.22482055 709.75398025 1900.23223321 796.79321914 C1900.23275767 802.946399 1900.23329498 809.09957885 1900.23383168 815.2527587 C1900.23401088 817.30765561 1900.23418985 819.36255253 1900.23436877 821.41744944 C1900.23550584 834.47167179 1900.23665191 847.52589414 1900.23781696 860.58011649 C1900.23812427 864.02425616 1900.23843021 867.46839583 1900.23873287 870.9125355 C1900.24445233 935.95676842 1900.25369379 1001.00099744 1900.27614987 1066.04522699 C1900.2763861 1066.72989243 1900.27662232 1067.41455786 1900.27686571 1068.11997074 C1900.28449357 1090.2002064 1900.2925424 1112.2804419 1900.30065098 1134.36067739 C1900.30845861 1155.62177787 1900.31618205 1176.88287837 1900.32354081 1198.14397901 C1900.3237749 1198.81982271 1900.32400898 1199.4956664 1900.32425017 1200.19199021 C1900.33888818 1242.52214645 1900.3486821 1284.85230117 1900.35341561 1327.18245977 C1900.35356263 1328.48987367 1900.35370965 1329.79728758 1900.35386113 1331.14432008 C1900.35704582 1359.84415671 1900.3590968 1388.5439933 1900.36008867 1417.24383008 C1900.36050342 1428.79127334 1900.36105832 1440.33871659 1900.36165059 1451.88615984 C1900.36174159 1453.78187259 1900.36174159 1453.78187259 1900.36183443 1455.71588257 C1900.36385115 1496.44068932 1900.37809495 1537.16548044 1900.39859559 1577.89028174 C1900.41916969 1618.90644089 1900.4270742 1659.92258195 1900.41751783 1700.93874575 C1900.41619935 1706.60557759 1900.41502131 1712.27240946 1900.4139272 1717.93924135 C1900.41370735 1719.05010564 1900.4134875 1720.16096993 1900.41326099 1721.30549677 C1900.41014568 1738.90092732 1900.42047702 1756.49632331 1900.43640275 1774.09174585 C1900.45178118 1791.39021018 1900.45291216 1808.68862666 1900.43885451 1825.98709265 C1900.43103999 1836.13048079 1900.43416983 1846.27372278 1900.45349167 1856.41709635 C1900.46523409 1863.15567317 1900.46243706 1869.89414331 1900.44787703 1876.63271436 C1900.44003135 1880.45142125 1900.43828669 1884.26984239 1900.45449607 1888.0885294 C1900.57322548 1918.00127369 1895.89455008 1942.80937683 1875.94320309 1966.25415033 C1875.36312497 1966.99149408 1874.78304684 1967.72883783 1874.18539059 1968.48852533 C1867.23811654 1976.96961314 1857.5676896 1984.01704236 1847.94320309 1989.25415033 C1847.28320309 1989.25415033 1846.62320309 1989.25415033 1845.94320309 1989.25415033 C1845.61320309 1989.91415033 1845.28320309 1990.57415033 1844.94320309 1991.25415033 C1843.07650387 1992.09204096 1843.07650387 1992.09204096 1840.63851559 1992.91040033 C1839.29660153 1993.36092767 1839.29660153 1993.36092767 1837.92757809 1993.82055658 C1836.51218747 1994.28268549 1836.51218747 1994.28268549 1835.06820309 1994.75415033 C1834.16328122 1995.06223627 1833.25835934 1995.37032221 1832.32601559 1995.68774408 C1831.41851559 1995.98809564 1830.51101559 1996.28844721 1829.57601559 1996.59790033 C1828.76020016 1996.86795892 1827.94438473 1997.13801752 1827.10384762 1997.41625971 C1817.99554912 1999.83088047 1809.28416521 2000.54352549 1799.88180351 2000.50714999 C1798.60113777 2000.51020309 1797.32047203 2000.51325619 1796.00099823 2000.5164018 C1792.45441748 2000.52457139 1788.90794448 2000.52037432 1785.36136388 2000.51411007 C1781.4854851 2000.50948946 1777.60962399 2000.51652656 1773.73374879 2000.5220437 C1766.91734412 2000.53014217 1760.10096996 2000.53080701 1753.28456222 2000.52663182 C1743.08005054 2000.52041564 1732.87556685 2000.525709 1722.6710572 2000.53322923 C1705.27932124 2000.54570245 1687.88759522 2000.54864061 1670.49585545 2000.54639429 C1652.86875666 2000.54414623 1635.24166632 2000.54621058 1617.61456883 2000.55353922 C1615.94511479 2000.55422818 1615.94511479 2000.55422818 1614.2419344 2000.55493105 C1609.70903984 2000.55681431 1605.17614528 2000.55872568 1600.64325074 2000.56067343 C1553.34224942 2000.58096859 1506.04125283 2000.58708564 1458.74024765 2000.58825766 C1453.64791662 2000.58838715 1448.5555856 2000.58852303 1443.46325457 2000.58866447 C1442.19960391 2000.58869848 1440.93595326 2000.58873249 1439.63401016 2000.58876753 C1411.63959996 2000.58958422 1383.64519066 2000.59396333 1355.65078094 2000.59897616 C1344.12599272 2000.60103285 1332.60120448 2000.60301291 1321.07641625 2000.60500866 C1319.80305124 2000.60522984 1318.52968622 2000.60545102 1317.21773438 2000.6056789 C1244.92314461 2000.61821002 1172.62855546 2000.62659991 1100.33396463 2000.62568729 C1098.28631498 2000.62566178 1096.23866533 2000.62563786 1094.19101568 2000.62561447 C1079.80551549 2000.62544979 1065.4200153 2000.62524437 1051.0345151 2000.62502871 C1046.90990099 2000.62496717 1042.78528688 2000.62490704 1038.66067276 2000.62484708 C1035.22020679 2000.62479689 1031.77974082 2000.62474532 1028.33927485 2000.62469086 C963.35855464 2000.62366803 898.3778394 2000.62650336 833.39712155 2000.64538568 C832.37096768 2000.64568376 832.37096768 2000.64568376 831.32408343 2000.64598786 C809.94940185 2000.65221058 788.57472043 2000.65894355 767.20003903 2000.66577142 C745.26774678 2000.67277432 723.33545451 2000.67971528 701.40316212 2000.68630022 C700.39018501 2000.6866048 700.39018501 2000.6866048 699.35674371 2000.68691553 C657.05988563 2000.69961488 614.76302951 2000.70744913 572.46616948 2000.71001619 C571.1598071 2000.71009609 569.85344473 2000.71017599 568.50749562 2000.71025832 C539.83098627 2000.71196479 511.154477 2000.71248728 482.4779676 2000.71191756 C472.21722918 2000.71172459 461.95649075 2000.71162051 451.69575232 2000.71156011 C449.14310142 2000.71154428 446.59045051 2000.71152387 444.03779961 2000.71149886 C403.34940575 2000.71114609 362.66102581 2000.72254719 321.97263595 2000.73980649 C280.9963556 2000.75709958 240.02009453 2000.76149469 199.04381206 2000.74828385 C193.38262265 2000.74645923 187.7214332 2000.74477268 182.06024373 2000.74316782 C180.95048881 2000.74284764 179.8407339 2000.74252747 178.69735006 2000.74219759 C161.11962155 2000.73749007 143.54192638 2000.74621021 125.96420414 2000.76051019 C108.68327247 2000.77428811 91.40239007 2000.773808 74.12145949 2000.75812592 C63.98847755 2000.74935732 53.85564063 2000.7515201 43.72267067 2000.76985949 C36.99102964 2000.78094872 30.25949675 2000.77750157 23.52786403 2000.76229392 C19.71311704 2000.75408072 15.89865524 2000.75196479 12.08392578 2000.7677953 C-16.83574006 2000.87976566 -16.83574006 2000.87976566 -31.05679691 1996.25415033 C-31.74727579 1996.03116951 -32.43775467 1995.80818869 -33.14915716 1995.57845087 C-41.34704676 1992.91675177 -41.34704676 1992.91675177 -45.05679691 1991.25415033 C-45.38679691 1990.59415033 -45.71679691 1989.93415033 -46.05679691 1989.25415033 C-47.71172336 1988.55885137 -49.38077745 1987.89694189 -51.05679691 1987.25415033 C-66.61591402 1978.92603316 -80.2880382 1965.15985536 -88.05679691 1949.25415033 C-88.71679691 1948.59415033 -89.37679691 1947.93415033 -90.05679691 1947.25415033 C-91.0913405 1944.91017015 -92.03268032 1942.58698914 -92.93179691 1940.19165033 C-93.17542972 1939.57999017 -93.41906253 1938.96833002 -93.67007816 1938.33813471 C-94.5541009 1935.99982586 -95.30534774 1933.63879602 -96.05679691 1931.25415033 C-96.39232703 1930.21782747 -96.72785715 1929.18150461 -97.07355484 1928.11377802 C-100.96368338 1914.21243385 -100.62302843 1900.23401014 -100.56643154 1885.91148853 C-100.55560383 1882.03043636 -100.56826303 1878.14944351 -100.57777894 1874.2683976 C-100.59130323 1867.45220136 -100.59006058 1860.63613324 -100.57904476 1853.81993432 C-100.56262835 1843.61583837 -100.56939569 1833.41184574 -100.58057533 1823.20774737 C-100.59895477 1805.81436826 -100.59838532 1788.42103598 -100.58745182 1771.02765268 C-100.57644151 1753.40467944 -100.57412968 1735.78173701 -100.58240116 1718.15876192 C-100.58291785 1717.04511094 -100.58343454 1715.93145997 -100.58396689 1714.784062 C-100.5861 1710.24823167 -100.58829484 1705.71240139 -100.59056799 1701.17657113 C-100.61171979 1658.94063058 -100.61316257 1616.70471067 -100.60197818 1574.46876711 C-100.601647 1573.21751643 -100.60131582 1571.96626576 -100.6009746 1570.6770984 C-100.60064288 1569.4238445 -100.60031116 1568.1705906 -100.59996939 1566.87935931 C-100.58987821 1528.70404441 -100.58727037 1490.52873805 -100.59205997 1452.35342211 C-100.59236989 1449.7974008 -100.59267851 1447.24137949 -100.59298585 1444.68535818 C-100.59422771 1434.41385318 -100.59550238 1424.14234817 -100.5968249 1413.87084318 C-100.60049301 1385.15732883 -100.60277536 1356.44381445 -100.60396945 1327.73029989 C-100.60402404 1326.42273208 -100.60407862 1325.11516427 -100.60413486 1323.76797319 C-100.60577207 1282.10055561 -100.60126762 1240.43314162 -100.59257114 1198.76572508 C-100.59243067 1198.09006422 -100.59229019 1197.41440336 -100.59214546 1196.71826793 C-100.58744016 1174.08743745 -100.58241584 1151.45660705 -100.57735894 1128.82577664 C-100.56207782 1060.39271298 -100.55370234 991.95966029 -100.57782027 869.74823944 C-100.58287317 847.1243327 -100.58786728 824.50042596 -100.59257114 801.87651914 C-100.59271212 801.20108313 -100.5928531 800.52564712 -100.59299835 799.82974336 C-100.6018208 757.52475964 -100.60573542 715.21977866 -100.60396945 672.91479391 C-100.60391512 671.60817185 -100.60386078 670.3015498 -100.6038048 668.95533314 C-100.60255489 640.27314642 -100.60002036 611.59095991 -100.59632744 582.9087734 C-100.59501087 572.64611567 -100.59375855 562.38345794 -100.5925246 552.1208002 C-100.59221505 549.56770265 -100.59190012 547.0146051 -100.59157981 544.46150755 C-100.58680491 506.29675033 -100.59087227 468.13200272 -100.6009746 429.96724669 C-100.60130578 428.71607881 -100.60163697 427.46491093 -100.60197818 426.17582887 C-100.60230891 424.92696762 -100.60263964 423.67810637 -100.60298039 422.39140084 C-100.61401146 380.27661526 -100.60995856 338.16185446 -100.58885521 296.04707242 C-100.58664578 291.52502824 -100.58449896 287.00298404 -100.58240116 282.48093981 C-100.58188033 281.37114923 -100.5813595 280.26135865 -100.58082289 279.11793805 C-100.57293217 261.54254831 -100.57842753 243.96718937 -100.58947718 226.39180241 C-100.60005626 209.11167342 -100.59634779 191.8315964 -100.57742083 174.551474 C-100.56674734 164.42019789 -100.56696722 154.28906428 -100.58334722 144.15779498 C-100.59313483 137.42606235 -100.58837513 130.69444048 -100.5718798 123.96272121 C-100.56293726 120.14876024 -100.56005977 116.33508264 -100.57514587 112.52113455 C-100.70747034 76.56436446 -100.70747034 76.56436446 -92.87320316 60.95727533 C-91.83085071 58.78279846 -91.36440394 56.63810486 -91.05679691 54.25415033 C-90.39679691 54.25415033 -89.73679691 54.25415033 -89.05679691 54.25415033 C-88.80929691 53.55547846 -88.56179691 52.85680658 -88.30679691 52.13696283 C-79.52839873 31.89178203 -59.97610935 15.86004293 -40.05679691 7.25415033 C-26.94001293 2.16830591 -14.0453187 -0.05294698 0 0 Z M-26.05679691 57.25415033 C-26.05679691 57.91415033 -26.05679691 58.57415033 -26.05679691 59.25415033 C-26.79027347 59.50165033 -27.52375003 59.74915033 -28.27945316 60.00415033 C-37.22741927 64.03136433 -43.57165953 73.91948642 -47.05289066 82.79321283 C-50.13978029 92.33450806 -50.20269661 101.97629688 -50.18329674 111.91145486 C-50.18482329 113.17270067 -50.18634984 114.43394648 -50.18792264 115.73341186 C-50.19201711 119.23474101 -50.18990432 122.73604296 -50.18677678 126.23737209 C-50.18447055 130.06057631 -50.18798309 133.88377602 -50.1907436 137.70697933 C-50.19479649 144.43361165 -50.19512361 151.16023624 -50.19303765 157.88686934 C-50.189932 167.95696269 -50.19257437 178.02704895 -50.19633636 188.09714179 C-50.20257564 205.25893995 -50.20404165 222.4207356 -50.20291889 239.58253473 C-50.20179514 256.97825953 -50.20282604 274.37398219 -50.20649135 291.76970667 C-50.206721 292.86777204 -50.20695066 293.96583742 -50.20718727 295.09717751 C-50.20812889 299.56931411 -50.20908458 304.04145071 -50.21005846 308.51358731 C-50.22020788 355.18855938 -50.22326463 401.86353026 -50.22385057 448.53850332 C-50.22391532 453.56393886 -50.22398326 458.58937439 -50.22405398 463.61480993 C-50.22407098 464.8618475 -50.22408799 466.10888506 -50.22410551 467.39371165 C-50.22451379 495.01559174 -50.22670314 522.6374716 -50.22920982 550.25935157 C-50.23023816 561.62944026 -50.23122819 572.99952895 -50.23222607 584.36961764 C-50.23233666 585.62587452 -50.23244725 586.88213141 -50.23256119 588.17645668 C-50.23882702 659.50259586 -50.24302167 730.82873496 -50.24256539 802.15487441 C-50.24255263 804.17523221 -50.24254067 806.19559001 -50.24252898 808.2159478 C-50.24244664 822.40984767 -50.24234393 836.60374753 -50.2422361 850.79764739 C-50.24220533 854.86736162 -50.24217526 858.93707584 -50.24214528 863.00679007 C-50.24212019 866.40146306 -50.2420944 869.79613605 -50.24206717 873.19080905 C-50.24155573 937.30966106 -50.24297398 1001.42851181 -50.25241458 1065.54736322 C-50.25251394 1066.22243199 -50.2526133 1066.89750075 -50.25271567 1067.59302614 C-50.25582703 1088.68547121 -50.25919352 1109.77791624 -50.26260746 1130.87036127 C-50.26610887 1152.5128669 -50.26957933 1174.15537254 -50.27287185 1195.79787821 C-50.27297338 1196.46426258 -50.2730749 1197.13064696 -50.27317951 1197.81722481 C-50.27952851 1239.55010742 -50.28344617 1281.28298978 -50.28472984 1323.0158729 C-50.28476979 1324.30468531 -50.28480974 1325.59349772 -50.2848509 1326.92136505 C-50.28570411 1355.21168118 -50.28596539 1383.5019973 -50.28568053 1411.79231345 C-50.28558404 1421.91467916 -50.285532 1432.03704487 -50.2855018 1442.15941058 C-50.28549388 1444.67766245 -50.28548368 1447.19591432 -50.28547117 1449.71416619 C-50.28529474 1489.86519718 -50.29099726 1530.01622464 -50.29962499 1570.16725461 C-50.30826878 1610.59848528 -50.31047145 1651.02971107 -50.30386367 1691.46094228 C-50.30295134 1697.04495809 -50.30210807 1702.62897392 -50.30130565 1708.21298975 C-50.30114556 1709.30763216 -50.30098548 1710.40227457 -50.30082054 1711.53008796 C-50.29846539 1728.87903814 -50.30283005 1746.22797988 -50.30997684 1763.57692847 C-50.31686027 1780.62665127 -50.31663217 1797.67636158 -50.3087847 1814.72608409 C-50.30439516 1824.72766858 -50.30549431 1834.72921634 -50.31465149 1844.7307978 C-50.32018538 1851.3703496 -50.31848622 1858.00987395 -50.3108687 1864.64942363 C-50.30675182 1868.41501501 -50.30573193 1872.18053404 -50.31361939 1875.94612105 C-50.32203284 1879.9959546 -50.31491318 1884.04561597 -50.30634457 1888.09544915 C-50.31124419 1889.24974494 -50.31614381 1890.40404073 -50.3211919 1891.59331518 C-50.27691066 1901.62759731 -49.65541146 1911.84138698 -45.43179691 1921.06665033 C-44.98578128 1922.06309564 -44.53976566 1923.05954096 -44.08023441 1924.08618158 C-43.74250003 1924.80161127 -43.40476566 1925.51704096 -43.05679691 1926.25415033 C-42.39679691 1926.25415033 -41.73679691 1926.25415033 -41.05679691 1926.25415033 C-40.98332035 1926.81360346 -40.90984378 1927.37305658 -40.83414066 1927.94946283 C-38.31208672 1935.42690918 -29.21241296 1941.38947806 -22.56070316 1945.07446283 C-11.62830085 1950.22514224 -0.26950816 1950.40382813 11.60050762 1950.38065016 C13.49237633 1950.38293998 13.49237633 1950.38293998 15.42246462 1950.38527607 C18.92379377 1950.38937053 22.42509572 1950.38725774 25.92642485 1950.3841302 C29.74962907 1950.38182398 33.57282878 1950.38533651 37.39603209 1950.38809702 C44.12266441 1950.39214991 50.849289 1950.39247703 57.5759221 1950.39039107 C67.64601545 1950.38728542 77.71610171 1950.3899278 87.78619455 1950.39368978 C104.94799271 1950.39992907 122.10978836 1950.40139508 139.27158749 1950.40027231 C156.66731229 1950.39914857 174.06303495 1950.40017947 191.45875943 1950.40384477 C192.5568248 1950.40407443 193.65489018 1950.40430408 194.78623027 1950.40454069 C199.25836687 1950.40548231 203.73050347 1950.406438 208.20264007 1950.40741188 C254.87761215 1950.4175613 301.55258302 1950.42061805 348.22755608 1950.42120399 C353.25299162 1950.42126874 358.27842715 1950.42133668 363.30386269 1950.4214074 C364.55090026 1950.42142441 365.79793782 1950.42144141 367.08276441 1950.42145893 C394.7046445 1950.42186721 422.32652436 1950.42405656 449.94840433 1950.42656325 C461.31849302 1950.42759159 472.68858171 1950.42858161 484.0586704 1950.4295795 C485.31492728 1950.42969009 486.57118417 1950.42980068 487.86550944 1950.42991462 C559.19164862 1950.43618044 630.51778772 1950.44037509 701.84392718 1950.43991881 C703.86428497 1950.43990606 705.88464277 1950.43989409 707.90500056 1950.4398824 C722.09890043 1950.43980006 736.29280029 1950.43969735 750.48670016 1950.43958952 C754.55641438 1950.43955875 758.6261286 1950.43952869 762.69584283 1950.43949871 C766.09051582 1950.43947361 769.48518882 1950.43944782 772.87986181 1950.43942059 C836.99871382 1950.43890916 901.11756457 1950.4403274 965.23641598 1950.44976801 C966.24901913 1950.44991704 966.24901913 1950.44991704 967.2820789 1950.45006909 C988.37452397 1950.45318046 1009.466969 1950.45654694 1030.55941403 1950.45996088 C1052.20191966 1950.46346229 1073.8444253 1950.46693275 1095.48693097 1950.47022527 C1096.48650753 1950.47037756 1096.48650753 1950.47037756 1097.50627757 1950.47053293 C1139.23916018 1950.47688194 1180.97204254 1950.4807996 1222.70492566 1950.48208326 C1223.99373807 1950.48212321 1225.28255048 1950.48216316 1226.61041781 1950.48220432 C1254.90073394 1950.48305753 1283.19105006 1950.48331882 1311.48136621 1950.48303395 C1321.60373192 1950.48293746 1331.72609763 1950.48288542 1341.84846335 1950.48285522 C1344.36671521 1950.4828473 1346.88496708 1950.4828371 1349.40321895 1950.48282459 C1389.55424994 1950.48264816 1429.7052774 1950.48835068 1469.85630737 1950.49697841 C1510.28753804 1950.5056222 1550.71876383 1950.50782487 1591.14999504 1950.50121709 C1596.73401085 1950.50030476 1602.31802668 1950.49946149 1607.90204251 1950.49865907 C1608.99668492 1950.49849899 1610.09132733 1950.4983389 1611.21914072 1950.49817396 C1628.5680909 1950.49581881 1645.91703264 1950.50018348 1663.26598123 1950.50733026 C1680.31570403 1950.51421369 1697.36541434 1950.51398559 1714.41513685 1950.50613812 C1724.41672134 1950.50174858 1734.4182691 1950.50284774 1744.41985056 1950.51200491 C1751.05940236 1950.51753881 1757.69892671 1950.51583965 1764.33847639 1950.50822213 C1768.10406777 1950.50410524 1771.8695868 1950.50308535 1775.63517381 1950.51097282 C1779.68500736 1950.51938626 1783.73466873 1950.5122666 1787.78450191 1950.50369799 C1789.5159456 1950.51104742 1789.5159456 1950.51104742 1791.28236794 1950.51854532 C1811.87693219 1950.42766162 1824.87261474 1945.31710194 1839.50960934 1931.05102533 C1841.25503225 1929.24641589 1841.25503225 1929.24641589 1840.94320309 1926.25415033 C1841.60320309 1926.25415033 1842.26320309 1926.25415033 1842.94320309 1926.25415033 C1843.75506246 1924.5343719 1844.5412375 1922.80247231 1845.31820309 1921.06665033 C1845.75906247 1920.10372064 1846.19992184 1919.14079096 1846.65414059 1918.14868158 C1850.21825014 1908.66790569 1850.23530658 1898.09155933 1850.19390142 1888.10005182 C1850.19670605 1886.83369367 1850.19951069 1885.56733551 1850.20240031 1884.26260287 C1850.20986184 1880.76555634 1850.2049973 1877.26862221 1850.19802041 1873.77157877 C1850.19262601 1869.94609484 1850.19892943 1866.12062634 1850.20369411 1862.29514402 C1850.21046865 1855.5707183 1850.2098261 1848.84632501 1850.20432702 1842.12189859 C1850.19613189 1832.05517713 1850.19949687 1821.98848191 1850.2050923 1811.92175984 C1850.21429007 1794.76415098 1850.21399337 1777.60655397 1850.20853055 1760.44894403 C1850.20302821 1743.061348 1850.20186722 1725.67375977 1850.20600522 1708.28616327 C1850.20639273 1706.63889305 1850.20639273 1706.63889305 1850.20678808 1704.95834465 C1850.20785462 1700.48563556 1850.20895204 1696.01292648 1850.21008863 1691.5402174 C1850.22066827 1649.87812845 1850.22138428 1608.21604473 1850.21579373 1566.55395502 C1850.21554534 1564.70204086 1850.21554534 1564.70204086 1850.21529194 1562.81271429 C1850.21512608 1561.57613258 1850.21496022 1560.33955087 1850.21478933 1559.06549698 C1850.20974514 1521.40865424 1850.20843917 1483.75181365 1850.21083462 1446.09497064 C1850.21098958 1443.57434775 1850.21114389 1441.05372487 1850.21129756 1438.53310198 C1850.21191848 1428.40403614 1850.21255582 1418.27497031 1850.21321709 1408.14590448 C1850.2150512 1379.83009843 1850.21619233 1351.51429237 1850.21678936 1323.19848627 C1850.2168303 1321.26425416 1850.2168303 1321.26425416 1850.21687207 1319.29094666 C1850.21769075 1278.19567309 1850.21543803 1237.10040019 1850.21109021 1196.00512689 C1850.21101997 1195.33867909 1850.21094973 1194.67223129 1850.21087737 1193.9855881 C1850.20852467 1171.66287492 1850.20601253 1149.34016176 1850.20348411 1127.0174486 C1850.19584327 1059.51302461 1850.19165597 992.00860339 1850.20371477 871.45440093 C1850.20624119 849.13732521 1850.20873823 826.8202495 1850.21109021 804.50317377 C1850.2111607 803.83691354 1850.21123119 803.1706533 1850.21130381 802.48420337 C1850.21571446 760.759407 1850.21767246 719.03461103 1850.21678936 677.30981439 C1850.2167622 676.02127046 1850.21673503 674.73272653 1850.21670704 673.40513581 C1850.21608211 645.12091071 1850.21481489 616.83668566 1850.21296836 588.55246061 C1850.21231006 578.43239182 1850.2116839 568.31232303 1850.21106694 558.19225425 C1850.21091216 555.6745914 1850.2107547 553.15692856 1850.21059454 550.63926572 C1850.20820628 512.99137169 1850.21024233 475.34348009 1850.21529194 437.69558637 C1850.21545753 436.46097693 1850.21562312 435.22636749 1850.21579373 433.95434564 C1850.21595909 432.72200874 1850.21612446 431.48967184 1850.21629483 430.2199914 C1850.22180813 388.67933617 1850.21978847 347.13868722 1850.20923224 305.59803289 C1850.20812751 301.13940106 1850.2070541 296.68076923 1850.20600522 292.22213739 C1850.2056146 290.58077573 1850.2056146 290.58077573 1850.20521608 288.90625525 C1850.20126778 271.56374446 1850.20402153 254.22124146 1850.20954323 236.87873137 C1850.21482743 219.83545593 1850.2129883 202.79219367 1850.20351505 185.7489199 C1850.19817024 175.75120752 1850.19830235 165.75353124 1850.20647825 155.75582056 C1850.21136014 149.11886933 1850.20901093 142.48194625 1850.20074454 135.84499843 C1850.19625912 132.08089778 1850.19486788 128.3168691 1850.20237757 124.55277163 C1850.21038441 120.50453882 1850.20286713 116.4564796 1850.19390142 112.40824884 C1850.1986829 111.25442559 1850.20346439 110.10060234 1850.20839077 108.91181475 C1850.11851483 88.99074925 1845.43879036 75.81523315 1831.61898434 61.56665033 C1829.74060033 60.09546845 1828.27409535 59.66040606 1825.94320309 59.25415033 C1825.94320309 58.59415033 1825.94320309 57.93415033 1825.94320309 57.25415033 C1813.72644636 50.7219253 1801.31210281 49.94677326 1787.66605675 50.003452 C1786.39854474 50.00064737 1785.13103273 49.99784273 1783.82511127 49.99495311 C1780.32949068 49.98750111 1776.83398276 49.9923506 1773.33836529 49.99933301 C1769.5126891 50.00473257 1765.68702822 49.9984222 1761.86135364 49.99365932 C1755.13814082 49.98688808 1748.41496046 49.98752499 1741.69174695 49.99302641 C1731.62684199 50.001225 1721.56196326 49.99785506 1711.49705769 49.99226112 C1694.34211805 49.9830655 1677.18719028 49.98335901 1660.03224957 49.98882288 C1642.64829784 49.99432596 1625.26435393 49.9954856 1607.88040173 49.99134821 C1606.78229337 49.99108986 1605.68418501 49.99083152 1604.55280065 49.99056534 C1600.08035541 49.9894988 1595.60791018 49.98840138 1591.13546496 49.98726479 C1549.47958948 49.97668616 1507.82371923 49.9759687 1466.16784298 49.98155969 C1464.93351497 49.98172528 1463.69918695 49.98189088 1462.42745506 49.98206148 C1461.1911542 49.98222734 1459.95485335 49.9823932 1458.68108884 49.98256409 C1421.03008682 49.98760864 1383.37908697 49.98891408 1345.72808468 49.9865188 C1343.20767782 49.98636384 1340.68727095 49.98620953 1338.16686409 49.98605586 C1328.03862081 49.98543494 1317.91037754 49.9847976 1307.78213426 49.98413633 C1279.46877372 49.98230224 1251.15541317 49.98116109 1222.84205258 49.98056406 C1221.55268479 49.98053677 1220.263317 49.98050947 1218.93487746 49.98048136 C1177.84453814 49.97966269 1136.75419948 49.98191528 1095.66386044 49.98626322 C1094.66433493 49.98636857 1094.66433493 49.98636857 1093.64461698 49.98647605 C1071.32528476 49.98882874 1049.00595257 49.99134088 1026.68662037 49.99386931 C959.19281599 50.00151013 891.6990144 50.00569744 771.163648 49.99363865 C748.84994725 49.99111222 726.53624651 49.98861519 704.22254574 49.98626322 C703.55638283 49.98619273 702.89021992 49.98612224 702.20387025 49.98604961 C660.48403132 49.98163884 618.76419279 49.97968099 577.0443536 49.98056406 C575.11171869 49.98060481 575.11171869 49.98060481 573.14004064 49.98064639 C544.85823796 49.98127132 516.57643533 49.98253855 488.2946327 49.98438506 C478.17539547 49.98504336 468.05615824 49.98566952 457.93692101 49.98628649 C455.41947395 49.98644126 452.90202689 49.98659872 450.38457983 49.98675888 C412.74270268 49.98914696 375.10082797 49.98711143 337.45895113 49.98206148 C336.22462311 49.98189589 334.99029509 49.9817303 333.7185632 49.98155969 C331.87048046 49.98131165 331.87048046 49.98131165 329.98506271 49.98105859 C288.45039736 49.97554483 246.91573829 49.9775659 205.38107383 49.98812118 C200.92271738 49.98922591 196.46436092 49.99029932 192.00600445 49.99134821 C190.91183379 49.99160862 189.81766313 49.99186903 188.69033579 49.99213734 C171.35176562 49.99608502 154.01320325 49.99333255 136.67463379 49.9878102 C119.63357768 49.98252487 102.59253475 49.98436718 85.55148031 49.99383837 C75.55619752 49.99918147 65.56095083 49.99905404 55.56566975 49.99087518 C48.92906352 49.98599078 42.29248543 49.98834645 35.65588261 49.99660888 C31.89279924 50.00109129 28.12978781 50.00249252 24.36670764 49.99497585 C20.31786316 49.98695826 16.2691919 49.9944931 12.22034943 50.003452 C11.06915319 49.99867052 9.91795695 49.99388903 8.73187598 49.98896266 C-3.76508347 50.04522796 -14.9281357 51.30372332 -26.05679691 57.25415033 Z " fill="#FEFEFE" transform="translate(100.0567969083786,-0.2541503310203552)"/>
<path d="M0 0 C4.95644 -0.09276954 8.09430732 0.10172328 12.5 2.4375 C14.07201172 3.27087891 14.07201172 3.27087891 15.67578125 4.12109375 C19.67287821 6.38032247 23.60871184 8.73015078 27.52636719 11.12329102 C33.68089611 14.86345652 39.9582712 18.37181235 46.25 21.875 C54.3883836 26.40946644 62.49472499 30.98786951 70.54589844 35.67529297 C78.87479397 40.52065339 87.24645187 45.29074687 95.61791992 50.06201172 C101.07447946 53.17370314 106.5239181 56.2959707 111.9453125 59.46875 C112.82960938 59.98566406 113.71390625 60.50257813 114.625 61.03515625 C116.24962771 61.98708655 117.8721517 62.94261957 119.4921875 63.90234375 C123.00930287 66.18821063 123.00930287 66.18821063 127 67 C127 67.66 127 68.32 127 69 C127.66257812 69.24105469 128.32515625 69.48210937 129.0078125 69.73046875 C132.78988557 71.33513422 136.29846089 73.29755396 139.875 75.3125 C140.65238525 75.74763916 141.42977051 76.18277832 142.23071289 76.63110352 C144.82252152 78.08378996 147.41140442 79.54159661 150 81 C150.91797363 81.51594727 151.83594727 82.03189453 152.78173828 82.56347656 C170.340534 92.43446479 170.340534 92.43446479 178.6171875 97.2734375 C179.9331189 98.04216187 179.9331189 98.04216187 181.27563477 98.82641602 C182.93215623 99.79679867 184.58640318 100.77107755 186.23803711 101.74975586 C187.33643921 102.39376343 187.33643921 102.39376343 188.45703125 103.05078125 C189.09616455 103.42887939 189.73529785 103.80697754 190.39379883 104.1965332 C191.99878999 105.14912557 191.99878999 105.14912557 194 105 C194.65935547 105.66902344 194.65935547 105.66902344 195.33203125 106.3515625 C197.29796476 108.29447571 199.18785337 109.20562057 201.6875 110.375 C204.88708057 111.9239299 207.94689849 113.51585316 210.9375 115.4375 C213.7978081 117.27305205 216.69403467 118.95280638 219.6875 120.5625 C225.21372715 123.54405668 230.67301385 126.63548922 236.125 129.75 C237.02541016 130.26409424 237.92582031 130.77818848 238.85351562 131.30786133 C243.27658624 133.84102427 247.68496423 136.3954235 252.06640625 139 C252.84806152 139.46438477 253.6297168 139.92876953 254.43505859 140.40722656 C255.90790884 141.28525348 257.37839729 142.16725758 258.84619141 143.05371094 C262.18901977 145.24801202 262.18901977 145.24801202 266 146 C266 146.66 266 147.32 266 148 C266.71905518 148.27336182 267.43811035 148.54672363 268.17895508 148.82836914 C270.95192607 149.98003403 273.51075071 151.29265552 276.13671875 152.74609375 C277.10013184 153.27831543 278.06354492 153.81053711 279.05615234 154.35888672 C280.02762207 154.9004541 280.9990918 155.44202148 282 156 C283.331521 156.74080811 283.331521 156.74080811 284.68994141 157.49658203 C287.4015124 159.01147375 290.10801216 160.53500033 292.8125 162.0625 C293.79444336 162.61687744 294.77638672 163.17125488 295.78808594 163.74243164 C303.71062081 168.23283742 311.56363511 172.83435311 319.37817383 177.51000977 C324.59324958 180.62083574 329.86359846 183.59447688 335.20458984 186.48364258 C357.91852652 198.80471338 380.60457635 211.48459338 402.62890625 225.0078125 C406.38839605 227.22952721 410.20984207 229.3126501 414.04858398 231.39355469 C418.97290118 234.07384314 423.86026551 236.81977299 428.75 239.5625 C429.82620605 240.16602295 430.90241211 240.7695459 432.01123047 241.39135742 C435.34137926 243.25991116 438.67070757 245.12992097 442 247 C443.03995117 247.58330078 444.07990234 248.16660156 445.15136719 248.76757812 C455.24551978 254.4316446 465.30532379 260.11692253 475.17480469 266.16552734 C478.49089725 268.17403947 481.81161467 269.91192566 485.375 271.4375 C489 273 489 273 490 275 C491.6630584 275.67561748 493.33094605 276.33933281 495 277 C500.12857454 279.61770992 505.00574971 282.62098741 509.875 285.6875 C515.19353258 288.99378219 520.62233651 291.94404479 526.1875 294.8125 C532.51732905 298.08068308 538.64946712 301.53275965 544.6875 305.3125 C552.65980534 310.29763715 560.85680232 314.77895786 569.14672852 319.21166992 C576.08098599 322.92937738 582.9061939 326.78711263 589.64868164 330.84204102 C592.53433122 332.57387798 595.36426788 334.17669086 598.3984375 335.6484375 C601 337 601 337 602 339 C603.65214851 339.70187428 605.32198064 340.36244745 607 341 C608.76378975 341.91129137 610.51346102 342.85029492 612.25 343.8125 C613.22066406 344.35003906 614.19132813 344.88757813 615.19140625 345.44140625 C616.11824219 345.95574219 617.04507813 346.47007812 618 347 C618.71027344 347.38027344 619.42054688 347.76054688 620.15234375 348.15234375 C626.05106965 351.33380628 631.69189405 354.90262351 637.32885742 358.52246094 C645.86450727 363.94675228 653.34263459 365.14756118 663.46939087 365.15148926 C664.29891704 365.15572043 665.12844322 365.1599516 665.98310655 365.16431099 C668.75908466 365.17729706 671.53503402 365.18335537 674.31103516 365.18945312 C676.3174071 365.19742884 678.32377736 365.20583799 680.33014584 365.21464443 C684.67986039 365.23278497 689.02957096 365.2478189 693.37930489 365.26048088 C700.40726356 365.28094072 707.43518718 365.30813128 714.46311951 365.33607483 C724.57543042 365.37558151 734.68774849 365.41182717 744.80007935 365.4458313 C760.62642382 365.49915771 776.45273903 365.5591225 792.27905273 365.62084961 C793.59512697 365.62597734 794.91120121 365.63110507 796.26715648 365.63638818 C801.60512464 365.65719924 806.94309271 365.67802882 812.2810604 365.69896024 C819.00387218 365.72531112 825.72668466 365.75145681 832.44949913 365.77711296 C885.00167428 365.97770213 937.55336508 366.24452389 990.10505581 366.54558945 C995.04727018 366.57384884 999.98948597 366.6018564 1004.93170166 366.62988281 C1026.2878139 366.75108417 1047.64391473 366.8741342 1069 367 C1069.15373766 394.62406603 1069.30177523 422.24815746 1069.4429636 449.87229061 C1069.50864876 462.69767286 1069.57622313 475.52304003 1069.64819336 488.34838867 C1069.71089312 499.52254982 1069.77010088 510.69672298 1069.82505554 521.87092501 C1069.85429666 527.79154592 1069.8853269 533.71214561 1069.92053413 539.6327343 C1069.95357575 545.19840272 1069.98197003 550.76407496 1070.00670624 556.3297863 C1070.01664983 558.37893592 1070.02833232 560.4280779 1070.04183006 562.47720718 C1070.05992048 565.26194099 1070.07191364 568.04663404 1070.08229065 570.83140564 C1070.08909444 571.65337384 1070.09589823 572.47534203 1070.10290819 573.32221836 C1070.10672315 575.21511923 1070.05919053 577.10802094 1070 579 C1069 580 1069 580 1066.36491263 580.12189716 C1065.17567549 580.1204333 1063.98643834 580.11896943 1062.76116371 580.1174612 C1062.0987946 580.11801586 1061.43642548 580.11857051 1060.75398457 580.11914197 C1058.50658483 580.11979015 1056.25926118 580.11323457 1054.01187134 580.10679626 C1052.39525351 580.1058013 1050.77863536 580.1052507 1049.16201723 580.10510927 C1044.69732393 580.10345531 1040.23265943 580.09556703 1035.76797533 580.08674753 C1030.96049832 580.07834993 1026.15301805 580.07572333 1021.34553528 580.07249451 C1013.00455838 580.06618166 1004.66359119 580.05643119 996.32262039 580.04459953 C984.24214886 580.02764483 972.16167976 580.01807565 960.08119898 580.0107208 C940.45614801 579.99875815 920.83110083 579.9838065 901.20605469 579.96557617 C900.03031125 579.96448605 898.85456782 579.96339593 897.64319579 579.96227277 C880.99110949 579.9466925 864.33902791 579.92810585 847.6869462 579.9082749 C846.5166602 579.90688158 845.34637421 579.90548827 844.140625 579.90405273 C842.97176713 579.9026592 841.80290926 579.90126567 840.59863146 579.89982992 C821.07076659 579.87675023 801.54290476 579.86146172 782.01502836 579.85249335 C769.97611966 579.84665411 757.93725255 579.83432047 745.89836024 579.81352056 C737.63222094 579.79975328 729.36609608 579.79331636 721.09994544 579.79251044 C716.33818215 579.79181022 711.57648079 579.78790505 706.81473351 579.7750473 C702.44181877 579.76330268 698.06899956 579.76109978 693.69607274 579.76598949 C692.12713075 579.76613886 690.55818356 579.76299118 688.98925753 579.75591242 C680.5583974 579.7198891 672.25288202 580.04195038 663.86179161 580.90132999 C663.08138649 580.98046683 662.30098136 581.05960366 661.4969276 581.14113858 C646.817688 582.78295636 635.11677803 588.95671095 622.86572266 596.78369141 C615.74135678 601.27545938 608.33813766 605.21242938 600.9152832 609.18383789 C594.3862893 612.68490748 587.96262659 616.30762756 581.60424805 620.10791016 C573.02269448 625.21659208 564.27760387 630.03672182 555.5546875 634.8984375 C547.97821463 639.12468779 540.54071984 643.49614041 533.18359375 648.09765625 C524.97946612 653 524.97946612 653 522 653 C521.67 653.66 521.34 654.32 521 655 C519.61766625 655.85019642 518.19049722 656.6275722 516.75 657.375 C511.18851588 660.33491358 505.71369017 663.42586216 500.25 666.5625 C492.7211716 670.87711338 485.18089097 675.17044694 477.625 679.4375 C476.19063599 680.24791748 476.19063599 680.24791748 474.72729492 681.07470703 C469.91307897 683.79373163 465.09660936 686.50868581 460.27734375 689.21875 C450.36735719 694.79740432 440.49946699 700.43794139 430.6875 706.1875 C421.53804685 711.54861675 412.32098103 716.76431798 403.03222656 721.87939453 C393.05970181 727.37842007 383.19608616 733.04750838 373.375 738.8125 C364.76689353 743.86240881 356.07957194 748.72317657 347.29492188 753.45800781 C339.36862916 757.75070612 331.59634562 762.28603868 323.8269043 766.85498047 C316.73215379 771.0171267 309.5703262 775.03059368 302.34912109 778.96826172 C293.81415661 783.62879037 285.38284749 788.46426993 276.95068359 793.30761719 C273.75737665 795.13915812 270.56070468 796.96471782 267.36328125 798.7890625 C255.82851975 805.37063367 244.30663579 811.97260182 232.8125 818.625 C223.17748842 824.20015942 213.48489202 829.66415689 203.76098633 835.08251953 C197.9642437 838.31912997 192.20607183 841.6062522 186.5 845 C179.27011572 849.29771906 171.95832789 853.44400978 164.625 857.5625 C163.52349609 858.18318359 162.42199219 858.80386719 161.28710938 859.44335938 C160.25650391 860.02021484 159.22589844 860.59707031 158.1640625 861.19140625 C157.24061035 861.70904541 156.3171582 862.22668457 155.36572266 862.76000977 C153 864 153 864 150 865 C149.67 865.66 149.34 866.32 149 867 C147.53622604 867.91485873 146.02605511 868.7558052 144.5 869.5625 C142.99373047 870.366875 142.99373047 870.366875 141.45703125 871.1875 C139.06146939 872.4434782 136.66337523 873.69333499 134.26171875 874.9375 C126.21346667 879.12570513 118.34523085 883.52261302 110.5625 888.1875 C102.59375736 892.96176158 94.51891594 897.46023914 86.3125 901.8125 C76.09563798 907.23944957 66.1267629 912.99875118 56.20776367 918.95043945 C47.03861958 924.43464445 37.74659556 929.65848563 28.36938477 934.77709961 C21.87039931 938.33958151 21.87039931 938.33958151 15.53417969 942.1796875 C14.6694252 942.72786133 14.6694252 942.72786133 13.78720093 943.28710938 C12.18050778 944.31452605 10.58286543 945.35605697 8.98583984 946.3984375 C5.88319252 948.06265389 3.45350325 948.50910947 0 949 C-0.18250027 919.8016235 -0.32407672 890.60330265 -0.40852264 861.40446981 C-0.41852829 857.95730836 -0.42888287 854.51014804 -0.43945312 851.06298828 C-0.44155161 850.37672075 -0.44365009 849.69045321 -0.44581217 848.98338969 C-0.48062303 837.87130827 -0.54369934 826.75955794 -0.61722237 815.64767294 C-0.69203485 804.24581342 -0.73587121 792.84422261 -0.75270796 781.44211066 C-0.76314784 775.03755752 -0.78772342 768.63375531 -0.84584045 762.2294426 C-0.90008601 756.20300768 -0.91690357 750.17763395 -0.90486145 744.15097809 C-0.90706484 741.93778595 -0.92301213 739.72455885 -0.9536438 737.51157761 C-0.99341042 734.49081633 -0.98390183 731.47406921 -0.96203613 728.45321655 C-0.99699023 727.13705496 -0.99699023 727.13705496 -1.03265047 725.79430425 C-0.96046159 722.1091388 -0.84483084 719.89907011 1.74178219 717.14639306 C3.76751037 715.60190233 5.79302202 714.2688142 8 713 C8.97211426 712.41919678 9.94422852 711.83839355 10.94580078 711.23999023 C11.85313965 710.76762939 12.76047852 710.29526855 13.6953125 709.80859375 C15.24907593 708.9892334 15.24907593 708.9892334 16.83422852 708.15332031 C17.92018311 707.58709961 19.0061377 707.02087891 20.125 706.4375 C29.04168187 701.7116268 37.86626221 696.87143963 46.5625 691.75 C47.50174316 691.20142334 48.44098633 690.65284668 49.40869141 690.08764648 C50.69332275 689.3249646 50.69332275 689.3249646 52.00390625 688.546875 C53.13034546 687.87930176 53.13034546 687.87930176 54.27954102 687.19824219 C56.1495446 686.09955283 56.1495446 686.09955283 57 684 C58.32949346 683.65166678 59.66378566 683.32158998 61 683 C62.69593014 682.15745491 64.36573296 681.26150289 66.015625 680.33203125 C67.00836426 679.77499512 68.00110352 679.21795898 69.02392578 678.64404297 C70.08853027 678.03963379 71.15313477 677.43522461 72.25 676.8125 C73.34940918 676.19262207 74.44881836 675.57274414 75.58154297 674.93408203 C86.3104634 668.86552208 96.95896583 662.65931027 107.58300781 656.40917969 C109.72821327 655.1584599 111.88725155 653.93813798 114.0546875 652.7265625 C117.00432755 651.16395372 117.00432755 651.16395372 119 649 C120.60437378 648.06874727 122.23198306 647.17724962 123.87109375 646.30859375 C130.00624307 643.01211049 136.0374426 639.55528018 142.0625 636.0625 C143.76933316 635.0751888 145.47616785 634.08788024 147.18309021 633.10072327 C148.35569037 632.42246785 149.52818538 631.74403063 150.70057678 631.06541443 C154.75581146 628.71823638 158.81448997 626.37710789 162.875 624.0390625 C176.75362039 616.04803252 176.75362039 616.04803252 190.5625 607.9375 C197.41102594 603.87618463 204.35463502 599.99542696 211.3125 596.125 C222.35303031 589.98121534 233.21109852 583.57366299 244 577 C248.71502464 574.13063476 253.51496277 571.41567777 258.3125 568.6875 C264.44786764 565.1965836 270.56483487 561.67817449 276.6484375 558.09765625 C278.28365356 557.13629761 278.28365356 557.13629761 279.9519043 556.15551758 C282.08835187 554.8973139 284.22267802 553.6355002 286.35473633 552.36987305 C287.32435303 551.79922119 288.29396973 551.22856934 289.29296875 550.640625 C290.1543042 550.13047852 291.01563965 549.62033203 291.90307617 549.09472656 C294 548 294 548 296 548 C296 547.34 296 546.68 296 546 C296.72558105 545.65098633 297.45116211 545.30197266 298.19873047 544.94238281 C305.75718085 541.24379888 312.95364671 537.14525432 320.125 532.75 C328.3028514 527.78574492 336.52252433 522.95994173 344.92041016 518.37841797 C350.61593805 515.25788987 356.12169982 511.89446956 361.59375 508.3984375 C364 507 364 507 366 507 C366.33 506.34 366.66 505.68 367 505 C368.56244117 504.04380223 370.1674463 503.15668366 371.7890625 502.3046875 C372.78711914 501.77327148 373.78517578 501.24185547 374.81347656 500.69433594 C376.39080566 499.85563965 376.39080566 499.85563965 378 499 C382.13481175 496.72591999 386.25501157 494.42580977 390.375 492.125 C391.46901123 491.5151123 392.56302246 490.90522461 393.69018555 490.27685547 C400.48282601 486.47055177 407.14415056 482.54358073 413.64453125 478.2578125 C416 477 416 477 420 477 C420 471.39 420 465.78 420 460 C418.68128906 459.59394531 417.36257813 459.18789063 416.00390625 458.76953125 C411.32458083 457.20428001 407.20278471 455.14462624 402.9375 452.6875 C402.17493896 452.25655029 401.41237793 451.82560059 400.62670898 451.3815918 C393.21606031 447.1738694 385.87553941 442.84352385 378.52587891 438.53051758 C369.71809364 433.3784412 360.8125802 428.4142914 351.88183594 423.47924805 C343.9533021 419.0954305 336.06852451 414.64225605 328.21142578 410.13183594 C323.21963075 407.26637316 318.21299558 404.43086383 313.1875 401.625 C308.43616677 398.97150487 303.72198529 396.26052938 299.02734375 393.5078125 C297.97071533 392.88825684 296.91408691 392.26870117 295.82543945 391.63037109 C293.74796487 390.40978148 291.67217694 389.18631489 289.59838867 387.95947266 C283.51259264 384.38161803 277.36116639 381.06271915 271 378 C271 377.34 271 376.68 271 376 C269.92745972 375.59056152 269.92745972 375.59056152 268.83325195 375.17285156 C263.76465295 373.07465685 259.01056647 370.35401955 254.1875 367.75 C253.04200684 367.13318359 251.89651367 366.51636719 250.71630859 365.88085938 C241.78464176 361.04953457 232.99012287 356.0011167 224.27026367 350.79589844 C219.54595279 347.99179133 214.80802513 345.37434277 209.8671875 342.96875 C205.44888084 340.80126543 201.46331141 338.38358567 197.42236328 335.58984375 C192.88199593 332.60991307 188.07090592 330.09590108 183.29898071 327.50958252 C172.20271201 321.49147079 161.23470415 315.28600465 150.35424805 308.88452148 C143.6417712 304.94052191 136.87837495 301.10663845 130.0559082 297.35644531 C124.69731685 294.40744694 119.42640447 291.3375827 114.1875 288.1796875 C112.12083074 286.8417793 112.12083074 286.8417793 110 287 C108.99963181 286.00036832 107.99970828 285.00029163 107 284 C105.43651734 283.02114662 103.83927555 282.09538591 102.22265625 281.20703125 C101.24796387 280.6670752 100.27327148 280.12711914 99.26904297 279.57080078 C98.21088379 278.99056152 97.15272461 278.41032227 96.0625 277.8125 C93.79489027 276.55722197 91.52799003 275.3006616 89.26171875 274.04296875 C88.37773407 273.55310486 88.37773407 273.55310486 87.47589111 273.05334473 C80.73655994 269.31207413 74.05755875 265.46641871 67.375 261.625 C58.80271249 256.69734795 50.20454637 251.87340307 41.39453125 247.3828125 C39 246 39 246 38 244 C36.3481271 243.29747729 34.67849344 242.63630337 33 242 C31.38815274 241.15948346 29.7906126 240.29106831 28.20703125 239.3984375 C27.32982422 238.90859375 26.45261719 238.41875 25.54882812 237.9140625 C23.71236858 236.88113593 21.87643754 235.84726922 20.04101562 234.8125 C19.16767578 234.32523438 18.29433594 233.83796875 17.39453125 233.3359375 C16.59893799 232.88782715 15.80334473 232.4397168 14.98364258 231.97802734 C13.06963821 230.85259431 13.06963821 230.85259431 11 231 C10.32331559 230.32311222 10.32331559 230.32311222 9.6329608 229.63254994 C7.83425496 227.83429666 6.13989191 227.00612938 3.87262726 225.87920094 C0.24592824 223.64131713 0.24592824 223.64131713 -0.73562717 221.08167493 C-1.01127588 218.6664494 -1.0284189 216.36307025 -0.96203613 213.93278503 C-0.96887153 213.01788073 -0.97570693 212.10297643 -0.98274946 211.16034776 C-0.99593374 208.09284876 -0.9519273 205.02884646 -0.90820312 201.96166992 C-0.90594666 199.76391686 -0.90721294 197.56615776 -0.91174316 195.3684082 C-0.91404134 189.3993594 -0.86696281 183.43159306 -0.8111515 177.4628427 C-0.76118745 171.22621498 -0.75644532 164.98955882 -0.74694824 158.75276184 C-0.72489738 148.2839273 -0.67490686 137.81553238 -0.60351562 127.34692383 C-0.53006457 116.56504672 -0.47344676 105.78329755 -0.43945312 95.0012207 C-0.43735134 94.33643431 -0.43524955 93.67164791 -0.43308407 92.98671647 C-0.42264364 89.65162253 -0.41255205 86.31652773 -0.40258884 82.98143232 C-0.31893716 55.32062682 -0.17819661 27.66034653 0 0 Z " fill="#FDFDFD" transform="translate(200,200)"/>
<path d="M0 0 C0 75.9 0 151.8 0 230 C-14.55410242 238.31662996 -14.55410242 238.31662996 -19.91113281 240.91699219 C-24.42726416 243.25845533 -28.75297572 245.94991988 -33.11276245 248.56750488 C-41.48316606 253.59047182 -49.87072878 258.5669754 -58.4375 263.25 C-67.23476917 268.06707318 -75.80321111 273.23824819 -84.38623047 278.42480469 C-97.23033653 286.16534012 -110.17934092 293.70525466 -123.25097656 301.05444336 C-139.10502294 309.98070488 -154.75684035 319.25622888 -170.41210938 328.52514648 C-177.56756974 332.75662555 -184.7677883 336.90099802 -192 341 C-195.18924303 342.80944846 -198.37655588 344.62224927 -201.5625 346.4375 C-202.85426147 347.17311157 -202.85426147 347.17311157 -204.17211914 347.92358398 C-209.67842637 351.07025568 -215.15779279 354.25993402 -220.62109375 357.48046875 C-221.27324356 357.86454391 -221.92539337 358.24861908 -222.5973053 358.64433289 C-225.83928787 360.55426537 -229.07878071 362.46823595 -232.31469727 364.38842773 C-233.51180902 365.09501215 -234.70899009 365.80147916 -235.90625 366.5078125 C-236.96134766 367.13316895 -238.01644531 367.75852539 -239.10351562 368.40283203 C-242 370 -242 370 -244.81835938 371.09326172 C-247.16804247 371.79084044 -247.16804247 371.79084044 -248 374 C-250.08616186 375.18774179 -252.17229924 376.29258704 -254.3125 377.375 C-260.55683939 380.61617446 -266.61184105 384.09894233 -272.625 387.75 C-279.75944395 392.0755588 -286.93907225 396.30549615 -294.1875 400.4375 C-295.03586426 400.9212207 -295.88422852 401.40494141 -296.75830078 401.90332031 C-300.58342808 404.07766682 -304.41768309 406.23202241 -308.2734375 408.3515625 C-314.40401343 411.74967619 -320.41364792 415.35505484 -326.4375 418.9375 C-327.61256515 419.63487527 -328.78769505 420.33214143 -329.96289062 421.02929688 C-335.11837397 424.08933908 -340.26790505 427.15865656 -345.40234375 430.25390625 C-349.27176461 432.57853856 -353.17780172 434.81005554 -357.125 437 C-364.00214991 440.84207692 -370.82095133 444.78006411 -377.625 448.75 C-378.63691406 449.33934326 -379.64882812 449.92868652 -380.69140625 450.53588867 C-385.89040988 453.57124248 -391.06874426 456.63606934 -396.21875 459.75390625 C-397.21181152 460.35170898 -398.20487305 460.94951172 -399.22802734 461.56542969 C-401.11348455 462.70248782 -402.99430143 463.84728817 -404.86962891 465.00097656 C-405.71960449 465.51241211 -406.56958008 466.02384766 -407.4453125 466.55078125 C-408.18281738 467.00106689 -408.92032227 467.45135254 -409.68017578 467.9152832 C-412 469 -412 469 -418 470 C-418 475.94 -418 481.88 -418 488 C-416.02 488.33 -414.04 488.66 -412 489 C-409.796875 489.90454102 -409.796875 489.90454102 -407.75 491.00390625 C-406.60204956 491.61347168 -406.60204956 491.61347168 -405.4309082 492.23535156 C-404.6287085 492.67331055 -403.82650879 493.11126953 -403 493.5625 C-402.15332764 494.0172168 -401.30665527 494.47193359 -400.43432617 494.94042969 C-393.21651388 498.83530142 -386.08174717 502.86293011 -379 507 C-377.09766115 508.1093834 -375.19531693 509.2187576 -373.29296875 510.328125 C-370.14578466 512.16427027 -366.99877583 514.00071462 -363.85205078 515.83764648 C-355.27973342 520.8422346 -355.27973342 520.8422346 -346.6875 525.8125 C-345.63949219 526.41707031 -344.59148438 527.02164063 -343.51171875 527.64453125 C-340.98745951 529.09987702 -340.98745951 529.09987702 -338 530 C-338 530.66 -338 531.32 -338 532 C-337.13890625 532.25523437 -336.2778125 532.51046875 -335.390625 532.7734375 C-331.86128861 534.050179 -328.94917216 535.67173659 -325.75 537.625 C-322.11728421 540.11642107 -322.11728421 540.11642107 -318 541 C-318 541.66 -318 542.32 -318 543 C-317.29617188 543.26167969 -316.59234375 543.52335937 -315.8671875 543.79296875 C-312.78649087 545.08988327 -310.01401564 546.63024276 -307.125 548.3125 C-305.88192999 549.0319754 -304.63840624 549.7506672 -303.39453125 550.46875 C-302.70311035 550.86835937 -302.01168945 551.26796875 -301.29931641 551.6796875 C-296.8196368 554.25200724 -292.31325773 556.77730785 -287.8125 559.3125 C-279.61194608 563.93467928 -271.45697163 568.62805241 -263.32983398 573.37792969 C-258.52218812 576.17051034 -253.67517331 578.77868352 -248.6171875 581.09765625 C-247 582 -247 582 -246 584 C-243.6859378 584.73075648 -241.35171131 585.40138258 -239 586 C-239 586.66 -239 587.32 -239 588 C-238.28118652 588.27223389 -237.56237305 588.54446777 -236.82177734 588.82495117 C-234.03234004 589.98653291 -231.48246668 591.31717227 -228.8515625 592.80078125 C-227.85753418 593.35934814 -226.86350586 593.91791504 -225.83935547 594.4934082 C-224.77861816 595.0937085 -223.71788086 595.69400879 -222.625 596.3125 C-221.52172363 596.93406982 -220.41844727 597.55563965 -219.28173828 598.19604492 C-216.98590704 599.49004996 -214.69083087 600.7853955 -212.39648438 602.08203125 C-209.18908878 603.89322301 -205.97805432 605.69775531 -202.765625 607.5 C-194.63605627 612.06784018 -186.51750053 616.63312079 -178.5625 621.5 C-171.20633308 625.99775868 -163.60878512 630.0342418 -156.01123047 634.10644531 C-148.93419291 637.912753 -141.96749251 641.86410315 -135.08837891 646.01733398 C-132.40689115 647.62943106 -129.97991346 649.00669551 -127 650 C-127 650.66 -127 651.32 -127 652 C-125.76830078 652.34804687 -125.76830078 652.34804687 -124.51171875 652.703125 C-120.27386852 654.26815979 -116.66004211 656.40848717 -112.8125 658.75 C-111.2898373 659.66145188 -109.76640065 660.57161205 -108.2421875 661.48046875 C-107.14342285 662.13668213 -107.14342285 662.13668213 -106.02246094 662.80615234 C-102.67125375 664.78435166 -99.2504764 666.62502391 -95.82421875 668.46875 C-90.3163095 671.45505764 -84.87184444 674.55624877 -79.41650391 677.63720703 C-76.74179125 679.14561742 -74.06428871 680.64901157 -71.38671875 682.15234375 C-52.40227674 692.82864351 -52.40227674 692.82864351 -43.33959961 698.4609375 C-40.389701 700.40500005 -40.389701 700.40500005 -37 701 C-37 701.66 -37 702.32 -37 703 C-36.12529053 703.26570801 -35.25058105 703.53141602 -34.34936523 703.80517578 C-31.08815944 704.96855075 -28.38375718 706.35576002 -25.41015625 708.1171875 C-24.37826172 708.72433594 -23.34636719 709.33148437 -22.28320312 709.95703125 C-21.22037109 710.58996094 -20.15753906 711.22289062 -19.0625 711.875 C-16.94932838 713.12258154 -14.83604986 714.36998204 -12.72265625 715.6171875 C-11.79203369 716.17003418 -10.86141113 716.72288086 -9.90258789 717.29248047 C-6.6187743 719.2242655 -3.30790668 721.10976761 0 723 C0 797.25 0 871.5 0 948 C-9.8683396 946.35527673 -17.8186051 941.19928883 -26.28442383 936.03686523 C-32.70096506 932.13925053 -39.20144151 928.38954066 -45.71508789 924.65740967 C-46.9816046 923.93134412 -48.24740147 923.20402139 -49.51245117 922.47540283 C-51.3110813 921.43986921 -53.11219558 920.40879509 -54.9140625 919.37890625 C-55.9654541 918.7763501 -57.0168457 918.17379395 -58.10009766 917.55297852 C-60.69248766 916.16468143 -63.24704153 915.0245115 -66 914 C-66 913.34 -66 912.68 -66 912 C-66.72147217 911.72526855 -67.44294434 911.45053711 -68.1862793 911.16748047 C-70.916544 910.03462791 -73.43422335 908.7505664 -76.01953125 907.3203125 C-77.46126709 906.52415527 -77.46126709 906.52415527 -78.93212891 905.71191406 C-85.27995953 902.16973769 -91.61674234 898.6081658 -97.94726562 895.03515625 C-102.48940886 892.48176526 -107.01110271 889.95596658 -111.70703125 887.6953125 C-115 886 -115 886 -116 884 C-117.65835643 883.31292201 -119.32754576 882.65201153 -121 882 C-123.64423384 880.65560233 -126.22561817 879.20112136 -128.8125 877.75 C-129.96274658 877.10877197 -129.96274658 877.10877197 -131.13623047 876.45458984 C-139.04588962 872.02036329 -146.86793613 867.43514419 -154.67504883 862.82324219 C-158.94391399 860.31185175 -163.18451819 857.86052603 -167.6484375 855.7109375 C-171 854 -171 854 -172 852 C-174.9347497 850.65160149 -177.85047161 849.6998952 -181 849 C-181 848.34 -181 847.68 -181 847 C-181.7130127 846.7306665 -182.42602539 846.46133301 -183.16064453 846.18383789 C-186.04900745 844.97956689 -188.70039854 843.58808824 -191.4296875 842.05859375 C-192.46472412 841.47948242 -193.49976074 840.90037109 -194.56616211 840.30371094 C-195.65807861 839.68786133 -196.74999512 839.07201172 -197.875 838.4375 C-199.00107666 837.80489258 -200.12715332 837.17228516 -201.28735352 836.52050781 C-207.80485481 832.84548228 -214.26487344 829.09703914 -220.65405273 825.20410156 C-225.51980597 822.25248278 -230.46383695 819.45296028 -235.4375 816.6875 C-236.53856079 816.07406738 -236.53856079 816.07406738 -237.66186523 815.44824219 C-241.06209059 813.56889552 -244.46953716 811.76217806 -247.97265625 810.08203125 C-250.89442047 808.64239898 -253.54771351 807.01260651 -256.234375 805.171875 C-261.68507571 801.45229812 -267.43808877 798.36352387 -273.25 795.25 C-274.3121875 794.67378906 -275.374375 794.09757812 -276.46875 793.50390625 C-281.93910898 790.49708954 -281.93910898 790.49708954 -287.65136719 788.01074219 C-290.10260972 786.95584155 -291.1854579 785.90436495 -293 784 C-294.47677919 783.06051413 -295.98633763 782.17165885 -297.515625 781.3203125 C-298.88182983 780.55436768 -298.88182983 780.55436768 -300.27563477 779.77294922 C-301.25717529 779.22912598 -302.23871582 778.68530273 -303.25 778.125 C-305.32693501 776.96374213 -307.40375446 775.80227754 -309.48046875 774.640625 C-310.55216309 774.04314453 -311.62385742 773.44566406 -312.72802734 772.83007812 C-315.96739402 771.01823716 -319.19808354 769.19191261 -322.42578125 767.359375 C-323.45477539 766.77526855 -324.48376953 766.19116211 -325.54394531 765.58935547 C-327.51628952 764.46918392 -329.48830896 763.3484403 -331.45996094 762.22705078 C-335.13811094 760.14337946 -338.78524789 758.10422137 -342.58984375 756.2578125 C-345 755 -345 755 -346 753 C-347.65151038 752.2966255 -349.32141056 751.6360501 -351 751 C-358.62554818 747.10289561 -365.99518732 742.71354304 -373.375 738.375 C-381.33430949 733.71492159 -389.30586328 729.07835241 -397.3125 724.5 C-398.12831543 724.03255371 -398.94413086 723.56510742 -399.78466797 723.08349609 C-404.8969291 720.16563417 -410.04921217 717.32897884 -415.22094727 714.51806641 C-419.77392666 712.03098692 -424.29528442 709.4888316 -428.8125 706.9375 C-429.79444336 706.38312256 -430.77638672 705.82874512 -431.78808594 705.25756836 C-439.71062081 700.76716258 -447.56363511 696.16564689 -455.37817383 691.48999023 C-461.50431379 687.83570865 -467.71919361 684.38072879 -474 681 C-484.87005822 675.12637203 -495.71681766 669.25016909 -506.33032227 662.921875 C-512.51166001 659.25073616 -518.78081989 655.74606698 -525.0625 652.25 C-533.42992135 647.59038551 -541.74135912 642.84978401 -550 638 C-558.11415649 633.23565141 -566.27803715 628.57577884 -574.5 624 C-585.89010409 617.66018305 -597.15130658 611.1138198 -608.39746094 604.52294922 C-612.02841765 602.39819237 -615.66582521 600.28515778 -619.3125 598.1875 C-620.36050781 597.58292969 -621.40851563 596.97835937 -622.48828125 596.35546875 C-625.01254049 594.90012298 -625.01254049 594.90012298 -628 594 C-628 593.34 -628 592.68 -628 592 C-628.70125 591.731875 -629.4025 591.46375 -630.125 591.1875 C-638.67123288 587.65753425 -638.67123288 587.65753425 -640 585 C-646.74762738 582.64957646 -653.79653195 581.78403001 -660.89662838 581.4200449 C-661.63251178 581.37993403 -662.36839519 581.33982316 -663.12657809 581.29849682 C-671.13501481 580.89370729 -679.13705097 580.84656621 -687.15394592 580.84178162 C-688.81028959 580.83720126 -690.46663213 580.83219916 -692.12297338 580.82681805 C-696.62238835 580.81339498 -701.12179588 580.80586527 -705.62122548 580.79939139 C-710.49282826 580.79131679 -715.36441591 580.77764384 -720.23600769 580.76467896 C-728.65912967 580.74301536 -737.08225325 580.72483439 -745.50538826 580.70907402 C-757.68356447 580.68628254 -769.86172385 580.65815303 -782.03988569 580.62875474 C-801.802055 580.58119196 -821.56423123 580.53789744 -841.32641602 580.49731445 C-860.51424701 580.45790174 -879.70207184 580.41645086 -898.88989258 580.37231445 C-900.08630283 580.36956495 -901.28271307 580.36681544 -902.51537818 580.36398262 C-911.87322685 580.34246124 -921.23107526 580.32082233 -930.58892357 580.29914629 C-976.39260325 580.19307909 -1022.19629914 580.09725656 -1068 580 C-1068 510.04 -1068 440.08 -1068 368 C-1025.23470703 367.92652344 -1025.23470703 367.92652344 -981.60546875 367.8515625 C-963.55403352 367.81618113 -945.5026012 367.78031652 -927.45117188 367.7421875 C-917.96736685 367.72218086 -908.48356157 367.70229663 -898.99975586 367.68261719 C-897.81119096 367.68014575 -896.62262607 367.67767431 -895.39804405 367.67512798 C-876.23448723 367.63545865 -857.07092456 367.60269437 -837.90735074 367.57250018 C-818.22581548 367.54133546 -798.54430496 367.50270474 -778.86279756 367.45720994 C-766.72800925 367.42939308 -754.59323894 367.40733069 -742.45842741 367.39273749 C-734.12591423 367.38215782 -725.79343603 367.36429598 -717.46094926 367.34083296 C-712.66072905 367.32752741 -707.86055763 367.3173123 -703.06031799 367.31578636 C-698.65218204 367.31431362 -694.24416325 367.3035496 -689.83606342 367.28586559 C-688.25431586 367.28107638 -686.67255403 367.27949082 -685.09080078 367.28172119 C-676.63693861 367.29167141 -668.29282314 366.9652384 -659.87769032 366.11931419 C-658.71247484 366.00557372 -658.71247484 366.00557372 -657.52371965 365.88953546 C-645.37414276 364.55088031 -635.2662922 359.4415951 -625 353 C-623.37723817 352.01712848 -621.75230864 351.03782505 -620.125 350.0625 C-619.31804687 349.57652344 -618.51109375 349.09054687 -617.6796875 348.58984375 C-612.74914725 345.66458153 -607.75882621 342.84320716 -602.77490234 340.01025391 C-600.03407453 338.45020638 -597.29885549 336.88037558 -594.5625 335.3125 C-590.35570112 332.90491479 -586.1404117 330.51286258 -581.91796875 328.1328125 C-570.3117703 321.59056237 -558.74644231 314.98295417 -547.21313477 308.31298828 C-540.77701341 304.59365323 -534.3256221 300.90610213 -527.83764648 297.27807617 C-521.51343619 293.7388696 -515.22949095 290.13003732 -508.94311523 286.52416992 C-503.07647951 283.16621172 -497.17410045 279.88023941 -491.25 276.625 C-486.07003302 273.77448563 -481.05830961 270.84119877 -476.20532227 267.45361328 C-473.86397795 265.9103426 -471.4753518 264.56641356 -469.0078125 263.234375 C-467.54952026 262.44595215 -467.54952026 262.44595215 -466.06176758 261.64160156 C-463.07081735 260.03796953 -460.07728926 258.43932028 -457.08203125 256.84375 C-445.08115667 250.45065385 -433.21803635 243.88527196 -421.50170898 236.98388672 C-414.06907674 232.60738052 -406.56445751 228.38346484 -399.01171875 224.21875 C-392.96668801 220.88474584 -386.98602897 217.43840355 -381 214 C-369.9302332 207.64549101 -358.83634277 201.33989051 -347.6875 195.125 C-334.35668636 187.68740663 -321.1777731 179.99719848 -308.02636719 172.24780273 C-300.47499899 167.8144463 -292.82334201 163.60064588 -285.11328125 159.45117188 C-279.82921423 156.5911612 -274.6434597 153.61768417 -269.50585938 150.50268555 C-265.15704793 147.89483925 -260.73254569 145.42201797 -256.3125 142.9375 C-255.31919678 142.37732178 -254.32589355 141.81714355 -253.30249023 141.23999023 C-249.23117058 138.94408024 -245.15814585 136.65121463 -241.08398438 134.36035156 C-230.38227756 128.34201678 -219.71648548 122.27311901 -209.125 116.0625 C-199.86963969 110.636398 -190.54416687 105.34926213 -181.17358398 100.125 C-167.79256011 92.66337643 -154.4712335 85.09315106 -141.27734375 77.3046875 C-139.90107824 76.51622664 -138.50760789 75.75556338 -137.08691406 75.05029297 C-135.1213215 74.06105815 -133.22971157 73.00366601 -131.33203125 71.890625 C-130.6157959 71.47256592 -129.89956055 71.05450684 -129.16162109 70.6237793 C-128.38641113 70.17043213 -127.61120117 69.71708496 -126.8125 69.25 C-117.84934004 64.02547011 -108.80486723 58.95440698 -99.71801758 53.94824219 C-94.31348091 50.9482792 -89.08399105 47.84171044 -84.0090332 44.30932617 C-81.0599599 42.38735751 -77.92580381 40.9217902 -74.76171875 39.390625 C-71.04288739 37.51805928 -67.45746856 35.43511831 -63.85424805 33.35058594 C-58.81945598 30.44704555 -53.72853543 27.65554342 -48.625 24.875 C-39.75678389 20.03199402 -31.01892712 14.98057582 -22.30908203 9.85888672 C-20.42517987 8.75151595 -18.53919433 7.64767983 -16.65087891 6.54785156 C-14.91709006 5.53549005 -13.18984671 4.51181267 -11.47021484 3.47558594 C-10.68984863 3.01700195 -9.90948242 2.55841797 -9.10546875 2.0859375 C-8.4302417 1.68165527 -7.75501465 1.27737305 -7.05932617 0.86083984 C-5 0 -5 0 0 0 Z " fill="#FDFDFD" transform="translate(1800,852)"/>
<path d="M0 0 C0.66 0.33 1.32 0.66 2 1 C0.92643323 2.15498897 -0.15929788 3.29867867 -1.25 4.4375 C-1.85328125 5.07558594 -2.4565625 5.71367187 -3.078125 6.37109375 C-5.10048016 8.08516306 -6.41270605 8.59358878 -9 9 C-6 6 -3 3 0 0 Z " fill="#959595" transform="translate(38,20)"/>
<path d="" fill="#0E0E0E" transform="translate(0,0)"/>
<path d="" fill="#0D0D0D" transform="translate(0,0)"/>
<path d="" fill="#101010" transform="translate(0,0)"/>
<path d="" fill="#0D0D0D" transform="translate(0,0)"/>
<path d="" fill="#101010" transform="translate(0,0)"/>
<path d="" fill="#0D0D0D" transform="translate(0,0)"/>
<path d="" fill="#0D0D0D" transform="translate(0,0)"/>
<path d="" fill="#0D0D0D" transform="translate(0,0)"/>
<path d="" fill="#131313" transform="translate(0,0)"/>
<path d="" fill="#0E0E0E" transform="translate(0,0)"/>
<path d="" fill="#0D0D0D" transform="translate(0,0)"/>
<path d="" fill="#0E0E0E" transform="translate(0,0)"/>
<path d="" fill="#0D0D0D" transform="translate(0,0)"/>
<path d="" fill="#0F0F0F" transform="translate(0,0)"/>
<path d="" fill="#0D0D0D" transform="translate(0,0)"/>
<path d="" fill="#0D0D0D" transform="translate(0,0)"/>
<path d="" fill="#0E0E0E" transform="translate(0,0)"/>
<path d="" fill="#0D0D0D" transform="translate(0,0)"/>
<path d="" fill="#101010" transform="translate(0,0)"/>
<path d="" fill="#0D0D0D" transform="translate(0,0)"/>
<path d="" fill="#0F0F0F" transform="translate(0,0)"/>
<path d="" fill="#0D0D0D" transform="translate(0,0)"/>
<path d="" fill="#0D0D0D" transform="translate(0,0)"/>
<path d="" fill="#0F0F0F" transform="translate(0,0)"/>
<path d="" fill="#0E0E0E" transform="translate(0,0)"/>
<path d="" fill="#0F0F0F" transform="translate(0,0)"/>
<path d="" fill="#111111" transform="translate(0,0)"/>
<path d="" fill="#0D0D0D" transform="translate(0,0)"/>
<path d="" fill="#111111" transform="translate(0,0)"/>
<path d="" fill="#121212" transform="translate(0,0)"/>
<path d="" fill="#0F0F0F" transform="translate(0,0)"/>
<path d="" fill="#0E0E0E" transform="translate(0,0)"/>
<path d="" fill="#0E0E0E" transform="translate(0,0)"/>
<path d="" fill="#0F0F0F" transform="translate(0,0)"/>
<path d="" fill="#0F0F0F" transform="translate(0,0)"/>
<path d="" fill="#141414" transform="translate(0,0)"/>
<path d="" fill="#0D0D0D" transform="translate(0,0)"/>
<path d="" fill="#0D0D0D" transform="translate(0,0)"/>
<path d="" fill="#121212" transform="translate(0,0)"/>
<path d="" fill="#0D0D0D" transform="translate(0,0)"/>
<path d="" fill="#0E0E0E" transform="translate(0,0)"/>
<path d="" fill="#0D0D0D" transform="translate(0,0)"/>
<path d="" fill="#0E0E0E" transform="translate(0,0)"/>
<path d="" fill="#111111" transform="translate(0,0)"/>
<path d="" fill="#0F0F0F" transform="translate(0,0)"/>
<path d="" fill="#0E0E0E" transform="translate(0,0)"/>
<path d="" fill="#0F0F0F" transform="translate(0,0)"/>
<path d="" fill="#111111" transform="translate(0,0)"/>
<path d="" fill="#171717" transform="translate(0,0)"/>
<path d="" fill="#0E0E0E" transform="translate(0,0)"/>
<path d="" fill="#0D0D0D" transform="translate(0,0)"/>
<path d="" fill="#0D0D0D" transform="translate(0,0)"/>
<path d="" fill="#0F0F0F" transform="translate(0,0)"/>
<path d="" fill="#0E0E0E" transform="translate(0,0)"/>
<path d="" fill="#0D0D0D" transform="translate(0,0)"/>
<path d="" fill="#0D0D0D" transform="translate(0,0)"/>
<path d="" fill="#0D0D0D" transform="translate(0,0)"/>
<path d="" fill="#0D0D0D" transform="translate(0,0)"/>
<path d="" fill="#111111" transform="translate(0,0)"/>
<path d="" fill="#0F0F0F" transform="translate(0,0)"/>
<path d="" fill="#111111" transform="translate(0,0)"/>
<path d="" fill="#0D0D0D" transform="translate(0,0)"/>
<path d="" fill="#0E0E0E" transform="translate(0,0)"/>
<path d="" fill="#0F0F0F" transform="translate(0,0)"/>
<path d="" fill="#0E0E0E" transform="translate(0,0)"/>
<path d="" fill="#0D0D0D" transform="translate(0,0)"/>
<path d="" fill="#101010" transform="translate(0,0)"/>
<path d="" fill="#101010" transform="translate(0,0)"/>
<path d="" fill="#0D0D0D" transform="translate(0,0)"/>
<path d="" fill="#151515" transform="translate(0,0)"/>
<path d="" fill="#0E0E0E" transform="translate(0,0)"/>
<path d="" fill="#0E0E0E" transform="translate(0,0)"/>
<path d="" fill="#0E0E0E" transform="translate(0,0)"/>
<path d="" fill="#0D0D0D" transform="translate(0,0)"/>
<path d="" fill="#0D0D0D" transform="translate(0,0)"/>
<path d="" fill="#0F0F0F" transform="translate(0,0)"/>
<path d="" fill="#111111" transform="translate(0,0)"/>
<path d="" fill="#0E0E0E" transform="translate(0,0)"/>
<path d="" fill="#0F0F0F" transform="translate(0,0)"/>
<path d="" fill="#0E0E0E" transform="translate(0,0)"/>
<path d="" fill="#0D0D0D" transform="translate(0,0)"/>
<path d="" fill="#0F0F0F" transform="translate(0,0)"/>
<path d="" fill="#0D0D0D" transform="translate(0,0)"/>
<path d="" fill="#0D0D0D" transform="translate(0,0)"/>
<path d="" fill="#0E0E0E" transform="translate(0,0)"/>
<path d="" fill="#0E0E0E" transform="translate(0,0)"/>
<path d="" fill="#0E0E0E" transform="translate(0,0)"/>
<path d="" fill="#0D0D0D" transform="translate(0,0)"/>
<path d="" fill="#0D0D0D" transform="translate(0,0)"/>
<path d="" fill="#0D0D0D" transform="translate(0,0)"/>
<path d="" fill="#0D0D0D" transform="translate(0,0)"/>
<path d="" fill="#0F0F0F" transform="translate(0,0)"/>
<path d="" fill="#0D0D0D" transform="translate(0,0)"/>
<path d="" fill="#0D0D0D" transform="translate(0,0)"/>
<path d="" fill="#0D0D0D" transform="translate(0,0)"/>
<path d="" fill="#111111" transform="translate(0,0)"/>
<path d="" fill="#0D0D0D" transform="translate(0,0)"/>
<path d="" fill="#171717" transform="translate(0,0)"/>
<path d="" fill="#0E0E0E" transform="translate(0,0)"/>
<path d="" fill="#101010" transform="translate(0,0)"/>
<path d="" fill="#0E0E0E" transform="translate(0,0)"/>
<path d="" fill="#0D0D0D" transform="translate(0,0)"/>
<path d="" fill="#0E0E0E" transform="translate(0,0)"/>
<path d="" fill="#131313" transform="translate(0,0)"/>
<path d="" fill="#0E0E0E" transform="translate(0,0)"/>
<path d="" fill="#121212" transform="translate(0,0)"/>
<path d="" fill="#111111" transform="translate(0,0)"/>
<path d="" fill="#131313" transform="translate(0,0)"/>
<path d="" fill="#0F0F0F" transform="translate(0,0)"/>
<path d="" fill="#0D0D0D" transform="translate(0,0)"/>
<path d="" fill="#0D0D0D" transform="translate(0,0)"/>
<path d="" fill="#101010" transform="translate(0,0)"/>
<path d="" fill="#0F0F0F" transform="translate(0,0)"/>
<path d="" fill="#101010" transform="translate(0,0)"/>
<path d="" fill="#0D0D0D" transform="translate(0,0)"/>
<path d="" fill="#101010" transform="translate(0,0)"/>
<path d="" fill="#0D0D0D" transform="translate(0,0)"/>
<path d="" fill="#0D0D0D" transform="translate(0,0)"/>
<path d="" fill="#0D0D0D" transform="translate(0,0)"/>
<path d="" fill="#0D0D0D" transform="translate(0,0)"/>
<path d="" fill="#0F0F0F" transform="translate(0,0)"/>
<path d="" fill="#111111" transform="translate(0,0)"/>
<path d="" fill="#0E0E0E" transform="translate(0,0)"/>
<path d="" fill="#0D0D0D" transform="translate(0,0)"/>
<path d="" fill="#101010" transform="translate(0,0)"/>
<path d="" fill="#111111" transform="translate(0,0)"/>
<path d="" fill="#0D0D0D" transform="translate(0,0)"/>
<path d="" fill="#0D0D0D" transform="translate(0,0)"/>
<path d="" fill="#0E0E0E" transform="translate(0,0)"/>
<path d="" fill="#141414" transform="translate(0,0)"/>
<path d="" fill="#0D0D0D" transform="translate(0,0)"/>
<path d="" fill="#0F0F0F" transform="translate(0,0)"/>
<path d="" fill="#0D0D0D" transform="translate(0,0)"/>
<path d="" fill="#0F0F0F" transform="translate(0,0)"/>
<path d="" fill="#0D0D0D" transform="translate(0,0)"/>
<path d="" fill="#101010" transform="translate(0,0)"/>
<path d="" fill="#0D0D0D" transform="translate(0,0)"/>
<path d="" fill="#0E0E0E" transform="translate(0,0)"/>
<path d="" fill="#0D0D0D" transform="translate(0,0)"/>
<path d="" fill="#0D0D0D" transform="translate(0,0)"/>
<path d="" fill="#0F0F0F" transform="translate(0,0)"/>
<path d="" fill="#0D0D0D" transform="translate(0,0)"/>
<path d="" fill="#0F0F0F" transform="translate(0,0)"/>
<path d="" fill="#101010" transform="translate(0,0)"/>
<path d="" fill="#0D0D0D" transform="translate(0,0)"/>
<path d="" fill="#0E0E0E" transform="translate(0,0)"/>
<path d="" fill="#0D0D0D" transform="translate(0,0)"/>
<path d="" fill="#0F0F0F" transform="translate(0,0)"/>
<path d="" fill="#101010" transform="translate(0,0)"/>
<path d="" fill="#0F0F0F" transform="translate(0,0)"/>
<path d="" fill="#0E0E0E" transform="translate(0,0)"/>
<path d="" fill="#0F0F0F" transform="translate(0,0)"/>
<path d="" fill="#0D0D0D" transform="translate(0,0)"/>
<path d="" fill="#0E0E0E" transform="translate(0,0)"/>
<path d="" fill="#111111" transform="translate(0,0)"/>
<path d="" fill="#131313" transform="translate(0,0)"/>
<path d="" fill="#0E0E0E" transform="translate(0,0)"/>
<path d="" fill="#0E0E0E" transform="translate(0,0)"/>
<path d="" fill="#101010" transform="translate(0,0)"/>
<path d="" fill="#0E0E0E" transform="translate(0,0)"/>
<path d="" fill="#101010" transform="translate(0,0)"/>
<path d="" fill="#161616" transform="translate(0,0)"/>
<path d="" fill="#0E0E0E" transform="translate(0,0)"/>
<path d="" fill="#0D0D0D" transform="translate(0,0)"/>
<path d="" fill="#0D0D0D" transform="translate(0,0)"/>
<path d="" fill="#0F0F0F" transform="translate(0,0)"/>
<path d="" fill="#0D0D0D" transform="translate(0,0)"/>
<path d="" fill="#0F0F0F" transform="translate(0,0)"/>
<path d="" fill="#0F0F0F" transform="translate(0,0)"/>
<path d="" fill="#0D0D0D" transform="translate(0,0)"/>
<path d="" fill="#0F0F0F" transform="translate(0,0)"/>
<path d="" fill="#0D0D0D" transform="translate(0,0)"/>
<path d="" fill="#111111" transform="translate(0,0)"/>
<path d="" fill="#0F0F0F" transform="translate(0,0)"/>
<path d="" fill="#141414" transform="translate(0,0)"/>
<path d="" fill="#0D0D0D" transform="translate(0,0)"/>
<path d="" fill="#101010" transform="translate(0,0)"/>
<path d="" fill="#0D0D0D" transform="translate(0,0)"/>
<path d="" fill="#0F0F0F" transform="translate(0,0)"/>
<path d="" fill="#101010" transform="translate(0,0)"/>
<path d="" fill="#111111" transform="translate(0,0)"/>
<path d="" fill="#0F0F0F" transform="translate(0,0)"/>
<path d="" fill="#0D0D0D" transform="translate(0,0)"/>
<path d="" fill="#0D0D0D" transform="translate(0,0)"/>
<path d="" fill="#101010" transform="translate(0,0)"/>
<path d="" fill="#0D0D0D" transform="translate(0,0)"/>
<path d="" fill="#0E0E0E" transform="translate(0,0)"/>
<path d="" fill="#0F0F0F" transform="translate(0,0)"/>
<path d="" fill="#0F0F0F" transform="translate(0,0)"/>
<path d="" fill="#101010" transform="translate(0,0)"/>
<path d="" fill="#0D0D0D" transform="translate(0,0)"/>
<path d="" fill="#101010" transform="translate(0,0)"/>
<path d="" fill="#101010" transform="translate(0,0)"/>
<path d="" fill="#0F0F0F" transform="translate(0,0)"/>
<path d="" fill="#0E0E0E" transform="translate(0,0)"/>
<path d="" fill="#0D0D0D" transform="translate(0,0)"/>
<path d="" fill="#0D0D0D" transform="translate(0,0)"/>
<path d="" fill="#131313" transform="translate(0,0)"/>
<path d="" fill="#131313" transform="translate(0,0)"/>
<path d="" fill="#111111" transform="translate(0,0)"/>
<path d="" fill="#151515" transform="translate(0,0)"/>
<path d="" fill="#101010" transform="translate(0,0)"/>
<path d="" fill="#0D0D0D" transform="translate(0,0)"/>
<path d="" fill="#101010" transform="translate(0,0)"/>
<path d="" fill="#0D0D0D" transform="translate(0,0)"/>
<path d="" fill="#0E0E0E" transform="translate(0,0)"/>
<path d="" fill="#0E0E0E" transform="translate(0,0)"/>
<path d="" fill="#121212" transform="translate(0,0)"/>
<path d="" fill="#0D0D0D" transform="translate(0,0)"/>
<path d="" fill="#141414" transform="translate(0,0)"/>
<path d="" fill="#0D0D0D" transform="translate(0,0)"/>
<path d="" fill="#0D0D0D" transform="translate(0,0)"/>
<path d="" fill="#161616" transform="translate(0,0)"/>
<path d="" fill="#0E0E0E" transform="translate(0,0)"/>
<path d="" fill="#0E0E0E" transform="translate(0,0)"/>
<path d="" fill="#0D0D0D" transform="translate(0,0)"/>
<path d="" fill="#0D0D0D" transform="translate(0,0)"/>
<path d="" fill="#0D0D0D" transform="translate(0,0)"/>
<path d="" fill="#131313" transform="translate(0,0)"/>
<path d="" fill="#0D0D0D" transform="translate(0,0)"/>
<path d="" fill="#0D0D0D" transform="translate(0,0)"/>
<path d="" fill="#0D0D0D" transform="translate(0,0)"/>
<path d="" fill="#0E0E0E" transform="translate(0,0)"/>
<path d="" fill="#0F0F0F" transform="translate(0,0)"/>
<path d="" fill="#0D0D0D" transform="translate(0,0)"/>
<path d="" fill="#0E0E0E" transform="translate(0,0)"/>
</svg>
